<svg xmlns="http://www.w3.org/2000/svg" width="72" height="48" viewBox="0 0 72 48">
  <g fill="none" fill-rule="evenodd">
    <path fill="#00C2C2" d="M22.465,9.3015 C22.465,4.99125 18.9405,1.5 14.5935,1.5 C10.24475,1.5 6.72025,4.99125 6.72025,9.3015 C6.72025,13.61 10.24475,17.10125 14.5935,17.10125 C18.9405,17.10125 22.465,13.61 22.465,9.3015 L22.465,9.3015 Z M8.709125,9.3015 C8.709125,6.07975 11.342875,3.471375 14.5935,3.471375 C17.842375,3.471375 20.476125,6.07975 20.476125,9.3015 C20.476125,12.5215 17.842375,15.13075 14.5935,15.13075 C11.342875,15.13075 8.709125,12.5215 8.709125,9.3015 Z M18.23875,8.843875 C18.23875,9.59375 18.8145,9.311125 18.8145,8.268125 C18.8145,6.472625 17.36025,5.018375 15.565625,5.018375 C14.520875,5.018375 14.23825,5.594125 14.989,5.594125 C16.7845,5.594125 18.23875,7.04925 18.23875,8.843875 Z M3.887875,22.418625 L1.5,20.03075 L6.79025,14.739625 C6.79025,14.739625 6.917125,15.7415 7.54975,16.374125 C8.18325,17.0085 9.178125,17.1275 9.178125,17.1275 L3.887875,22.418625 Z"/>
    <path fill="#00C2C2" d="M14.2962731,19.2859204 L14.4868867,19.2130129 L17.7958339,15.8917681 L17.7958339,22.5 L3,22.5 L3,1.55533944 L11.6101142,1.55533944 L11.6101142,7.65936755 L14.4719538,7.65936755 L8.68063747,13.4603463 L8.60685155,13.6781905 C7.8593299,15.906701 6.69983687,19.3438951 6.57510353,19.6768101 C6.41084201,20.1133768 6.48199272,20.6175806 6.76396035,21.0260384 C7.05822562,21.449429 7.51850922,21.7032877 7.99460409,21.7032877 C8.20015058,21.7032877 8.39603463,21.6576107 8.57786422,21.5653783 C8.93010415,21.390576 12.2724307,20.0747271 14.2962731,19.2859204 Z M12.6264274,1.5 L16.6521521,5.47477726 L15.4970511,6.63339189 L12.6264274,6.63339189 L12.6264274,1.5 Z M21.8004768,8.34627933 C22.3231271,8.8680512 22.2888694,9.57955829 21.789936,10.0776133 L14.0670097,17.8312837 C14.0670097,17.8312837 9.32011545,19.6794454 8.84489898,19.9166144 C8.55239051,20.0641862 8.13251349,19.6451876 8.25900364,19.3096373 C8.41799473,18.8871251 10.0992596,13.8811018 10.0992596,13.8811018 L17.8011043,6.16608106 C18.2974024,5.6689045 19.3242565,5.88674865 19.8477852,6.40939892 L21.8004768,8.34627933 Z M9.42113189,17.801418 L10.4014305,18.6938763 L13.6093613,17.3411344 L13.1359016,16.8667963 L13.1464425,16.6146944 L20.8992345,8.83291505 L20.1613753,8.10735349 L12.5860208,15.591354 L11.7137658,15.5860836 L11.707617,14.5293638 L19.1775631,7.08489145 C18.9087715,6.81785669 18.3211193,6.44365667 18.1972644,6.62372945 L10.7510353,14.2377337 L9.42113189,17.801418 Z" transform="translate(24)"/>
    <path fill="#00C2C2" d="M4.07975,7.70725 L5.424625,21.604875 C5.424625,22.09925 5.827125,22.5 6.3215,22.5 L16.271125,22.5 C16.7655,22.5 17.168,22.09925 17.168,21.604875 L18.512875,7.70725 L4.07975,7.70725 L4.07975,7.70725 Z M8.550125,19.784 L7.42925,19.784 L6.756375,10.17475 L7.876375,10.17475 L8.550125,19.784 L8.550125,19.784 Z M11.85675,20.0115 L10.73675,20.0115 L10.73675,10.173875 L11.85675,10.173875 L11.85675,20.0115 L11.85675,20.0115 Z M15.165125,19.784 L14.04425,19.784 L14.718,10.17475 L15.838,10.17475 L15.165125,19.784 Z M18.638875,4.262375 C19.1665,4.262375 19.592625,4.678875 19.59175,5.1925 L19.59175,6.69575 L3,6.69575 L3,5.1925 C3,4.67975 3.426125,4.26325 3.95375,4.26325 L8.25875,4.14075 L8.25875,2.307625 C8.25875,1.794 8.80825,1.5 9.334125,1.5 L13.39675,1.5 C13.922625,1.5 14.34875,1.915625 14.34875,2.42925 L14.34875,4.262375 L18.638875,4.262375 Z M9.0375,3.16775 L9.0375,4.262375 L13.555125,4.262375 L13.555125,3.16775 C13.555125,2.655875 13.0485,2.2385 12.426375,2.2385 L10.168,2.2385 C9.542375,2.2385 9.0375,2.655 9.0375,3.16775 Z" transform="translate(48)"/>
    <path fill="#009292" d="M23.2325,9.30158531 C23.2325,4.5711169 19.3643866,0.739495109 14.5935853,0.739495109 C9.82086343,0.739495109 5.95275,4.5711169 5.95275,9.30158531 C5.95275,14.0301331 9.82086343,17.8617549 14.5935853,17.8617549 C19.3643866,17.8617549 23.2325,14.0301331 23.2325,9.30158531 L23.2325,9.30158531 Z M7.6971875,9.30157525 C7.6971875,5.52569766 10.7839315,2.46869303 14.5936505,2.46869303 C18.4013185,2.46869303 21.4880625,5.52569766 21.4880625,9.30157525 C21.4880625,13.0754018 18.4013185,16.133432 14.5936505,16.133432 C10.7839315,16.133432 7.6971875,13.0754018 7.6971875,9.30157525 Z M18.23875,8.843875 C18.23875,9.59375 18.8145,9.311125 18.8145,8.268125 C18.8145,6.472625 17.36025,5.018375 15.565625,5.018375 C14.520875,5.018375 14.23825,5.594125 14.989,5.594125 C16.7845,5.594125 18.23875,7.04925 18.23875,8.843875 Z M10.6416523,9.94090168 C10.6416523,9.19102668 10.0659023,9.47365168 10.0659023,10.5166517 C10.0659023,12.3121517 11.5201523,13.7664017 13.3147773,13.7664017 C14.3595273,13.7664017 14.6421523,13.1906517 13.8914023,13.1906517 C12.0959023,13.1906517 10.6416523,11.7355267 10.6416523,9.94090168 Z M2.387875,23.918625 L0,21.53075 L6.79025,14.739625 C6.79025,14.739625 6.917125,15.7415 7.54975,16.374125 C8.18325,17.0085 9.178125,17.1275 9.178125,17.1275 L3.887875,22.418625 L2.387875,23.918625 Z" style="mix-blend-mode:multiply" transform="translate(0 24)"/>
    <path fill="#009292" d="M14.2962731,17.7859204 L16.2958339,15.8917681 L16.2958339,22.5 L1.5,22.5 L1.5,1.55533944 L10.1101142,1.55533944 L10.1101142,7.65936755 L12.9719538,7.65936755 L8.68063747,11.9603463 C8.68063747,11.9603463 6.69983687,17.8438951 6.57510353,18.1768101 C6.41084201,18.6133768 6.48199272,19.1175806 6.76396035,19.5260384 C7.05822562,19.949429 7.51850922,20.2032877 7.99460409,20.2032877 C8.20015058,20.2032877 8.39603463,20.1576107 8.57786422,20.0653783 C8.93010415,19.890576 12.2724307,18.5747271 14.2962731,17.7859204 Z M11.1264274,1.5 L15.1521521,5.47477726 L13.9970511,6.63339189 L11.1264274,6.63339189 L11.1264274,1.5 Z M21.3477852,3.40939892 L23.3004768,5.34627933 C23.8231271,5.8680512 23.7888694,6.57955829 23.289936,7.07761325 L15.5670097,14.8312837 C15.5670097,14.8312837 10.8201154,16.6794454 10.344899,16.9166144 C10.0523905,17.0641862 9.63251349,16.6451876 9.75900364,16.3096373 C9.91799473,15.8871251 11.5992596,10.8811018 11.5992596,10.8811018 L19.3011043,3.16608106 C19.7974024,2.6689045 20.8242565,2.88674865 21.3477852,3.40939892 Z M10.9211319,14.801418 L11.9014305,15.6938763 L15.1093613,14.3411344 L14.6359016,13.8667963 L14.6464425,13.6146944 L22.3992345,5.83291505 L21.6613753,5.10735349 L14.0860208,12.591354 L13.2137658,12.5860836 L13.207617,11.5293638 L20.6775631,4.08489145 C20.4087715,3.81785669 19.8211193,3.44365667 19.6972644,3.62372945 L12.2510353,11.2377337 L10.9211319,14.801418 Z" style="mix-blend-mode:multiply" transform="translate(24 24)"/>
    <path fill="#009292" d="M4.07975,7.70725 L5.424625,21.604875 C5.424625,22.09925 5.827125,22.5 6.3215,22.5 L16.271125,22.5 C16.7655,22.5 17.168,22.09925 17.168,21.604875 L18.512875,7.70725 L4.07975,7.70725 L4.07975,7.70725 Z M8.550125,19.784 L7.42925,19.784 L6.756375,10.17475 L7.876375,10.17475 L8.550125,19.784 L8.550125,19.784 Z M11.85675,20.0115 L10.73675,20.0115 L10.73675,10.173875 L11.85675,10.173875 L11.85675,20.0115 L11.85675,20.0115 Z M15.165125,19.784 L14.04425,19.784 L14.718,10.17475 L15.838,10.17475 L15.165125,19.784 Z M18.638875,2.762375 C19.1665,2.762375 19.592625,3.178875 19.59175,3.6925 L19.59175,5.19575 L3,5.19575 L3,3.6925 C3,3.17975 3.426125,2.76325 3.95375,2.76325 L8.25875,2.64075 L8.25875,0.807625 C8.25875,0.294 8.80825,0 9.334125,0 L13.39675,0 C13.922625,0 14.34875,0.415625 14.34875,0.92925 L14.34875,2.762375 L18.638875,2.762375 Z M9.0375,1.66775 L9.0375,2.762375 L13.555125,2.762375 L13.555125,1.66775 C13.555125,1.155875 13.0485,0.7385 12.426375,0.7385 L10.168,0.7385 C9.542375,0.7385 9.0375,1.155 9.0375,1.66775 Z" style="mix-blend-mode:multiply" transform="translate(48 24)"/>
  </g>
</svg>
