<svg xmlns="http://www.w3.org/2000/svg" width="48" height="16" viewBox="0 0 48 16">
  <g fill="#FF595A" fill-rule="evenodd">
    <path d="M13.9766667,5.201 C13.9766667,2.3275 11.627,0 8.729,0 C5.82983333,0 3.48016667,2.3275 3.48016667,5.201 C3.48016667,8.07333333 5.82983333,10.4008333 8.729,10.4008333 C11.627,10.4008333 13.9766667,8.07333333 13.9766667,5.201 L13.9766667,5.201 Z M4.80608333,5.201 C4.80608333,3.05316667 6.56191667,1.31425 8.729,1.31425 C10.8949167,1.31425 12.65075,3.05316667 12.65075,5.201 C12.65075,7.34766667 10.8949167,9.08716667 8.729,9.08716667 C6.56191667,9.08716667 4.80608333,7.34766667 4.80608333,5.201 Z M11.1591667,4.89591667 C11.1591667,5.39583333 11.543,5.20741667 11.543,4.51208333 C11.543,3.31508333 10.5735,2.34558333 9.37708333,2.34558333 C8.68058333,2.34558333 8.49216667,2.72941667 8.99266667,2.72941667 C10.1896667,2.72941667 11.1591667,3.6995 11.1591667,4.89591667 Z M1.59191667,13.94575 L0,12.3538333 L3.52683333,8.82641667 C3.52683333,8.82641667 3.61141667,9.49433333 4.03316667,9.91608333 C4.4555,10.339 5.11875,10.4183333 5.11875,10.4183333 L1.59191667,13.94575 Z" transform="translate(1 1)"/>
    <path d="M7.53084871,11.8572803 L7.65792446,11.8086753 L9.86388924,9.59451207 L9.86388924,14 L-6.75015599e-14,14 L-6.75015599e-14,0.0368929602 L5.74007613,0.0368929602 L5.74007613,4.10624503 L7.64796921,4.10624503 L3.78709165,7.97356423 L3.73790103,8.11879366 C3.23955327,9.60446731 2.46655791,11.8959301 2.38340235,12.1178734 C2.27389468,12.4089179 2.32132848,12.7450537 2.5093069,13.0173589 C2.70548375,13.2996194 3.01233948,13.4688585 3.32973606,13.4688585 C3.46676706,13.4688585 3.59735642,13.4384072 3.71857615,13.3769189 C3.95340277,13.260384 6.18162045,12.3831514 7.53084871,11.8572803 Z M6.41761827,0 L9.10143473,2.64985151 L8.33136738,3.42226126 L6.41761827,3.42226126 L6.41761827,0 Z M12.5336512,4.56418622 C12.8820847,4.91203413 12.8592462,5.38637219 12.526624,5.71840883 L7.37800644,10.8875225 C7.37800644,10.8875225 4.2134103,12.1196302 3.89659932,12.2777429 C3.70159368,12.3761241 3.42167566,12.0967917 3.50600243,11.8730916 C3.61199649,11.5914167 4.73283975,8.25406785 4.73283975,8.25406785 L9.86740285,3.11072071 C10.1982683,2.77926967 10.8828377,2.9244991 11.2318568,3.27293261 L12.5336512,4.56418622 Z M4.28075459,10.867612 L4.93428703,11.4625842 L7.07290752,10.5607563 L6.75726775,10.2445309 L6.76429498,10.076463 L11.932823,4.88861003 L11.4409169,4.40490233 L6.39068055,9.394236 L5.80917723,9.39072238 L5.80507801,8.68624252 L10.785042,3.72326097 C10.6058477,3.5452378 10.2140796,3.29577111 10.1315096,3.41581963 L5.16735684,8.49182248 L4.28075459,10.867612 Z" transform="translate(18 1)"/>
    <path d="M0.719833333,4.13816667 L1.61641667,13.40325 C1.61641667,13.7328333 1.88475,14 2.21433333,14 L8.84741667,14 C9.177,14 9.44533333,13.7328333 9.44533333,13.40325 L10.3419167,4.13816667 L0.719833333,4.13816667 L0.719833333,4.13816667 Z M3.70008333,12.1893333 L2.95283333,12.1893333 L2.50425,5.78316667 L3.25091667,5.78316667 L3.70008333,12.1893333 L3.70008333,12.1893333 Z M5.9045,12.341 L5.15783333,12.341 L5.15783333,5.78258333 L5.9045,5.78258333 L5.9045,12.341 L5.9045,12.341 Z M8.11008333,12.1893333 L7.36283333,12.1893333 L7.812,5.78316667 L8.55866667,5.78316667 L8.11008333,12.1893333 Z M10.4259167,1.84158333 C10.7776667,1.84158333 11.06175,2.11925 11.0611667,2.46166667 L11.0611667,3.46383333 L0,3.46383333 L0,2.46166667 C0,2.11983333 0.284083333,1.84216667 0.635833333,1.84216667 L3.50583333,1.7605 L3.50583333,0.538416667 C3.50583333,0.196 3.87216667,0 4.22275,0 L6.93116667,0 C7.28175,0 7.56583333,0.277083333 7.56583333,0.6195 L7.56583333,1.84158333 L10.4259167,1.84158333 Z M4.025,1.11183333 L4.025,1.84158333 L7.03675,1.84158333 L7.03675,1.11183333 C7.03675,0.770583333 6.699,0.492333333 6.28425,0.492333333 L4.77866667,0.492333333 C4.36158333,0.492333333 4.025,0.77 4.025,1.11183333 Z" transform="translate(35 1)"/>
  </g>
</svg>
