<svg xmlns="http://www.w3.org/2000/svg" width="48" height="32" viewBox="0 0 48 32">
  <g fill="none" fill-rule="evenodd">
    <path fill="#00C2C2" d="M14.9766667,6.201 C14.9766667,3.3275 12.627,1 9.729,1 C6.82983333,1 4.48016667,3.3275 4.48016667,6.201 C4.48016667,9.07333333 6.82983333,11.4008333 9.729,11.4008333 C12.627,11.4008333 14.9766667,9.07333333 14.9766667,6.201 L14.9766667,6.201 Z M5.80608333,6.201 C5.80608333,4.05316667 7.56191667,2.31425 9.729,2.31425 C11.8949167,2.31425 13.65075,4.05316667 13.65075,6.201 C13.65075,8.34766667 11.8949167,10.0871667 9.729,10.0871667 C7.56191667,10.0871667 5.80608333,8.34766667 5.80608333,6.201 Z M12.1591667,5.89591667 C12.1591667,6.39583333 12.543,6.20741667 12.543,5.51208333 C12.543,4.31508333 11.5735,3.34558333 10.3770833,3.34558333 C9.68058333,3.34558333 9.49216667,3.72941667 9.99266667,3.72941667 C11.1896667,3.72941667 12.1591667,4.6995 12.1591667,5.89591667 Z M2.59191667,14.94575 L1,13.3538333 L4.52683333,9.82641667 C4.52683333,9.82641667 4.61141667,10.4943333 5.03316667,10.9160833 C5.4555,11.339 6.11875,11.4183333 6.11875,11.4183333 L2.59191667,14.94575 Z"/>
    <path fill="#00C2C2" d="M9.53084871,12.8572803 L9.65792446,12.8086753 L11.8638892,10.5945121 L11.8638892,15 L2,15 L2,1.03689296 L7.74007613,1.03689296 L7.74007613,5.10624503 L9.64796921,5.10624503 L5.78709165,8.97356423 L5.73790103,9.11879366 C5.23955327,10.6044673 4.46655791,12.8959301 4.38340235,13.1178734 C4.27389468,13.4089179 4.32132848,13.7450537 4.5093069,14.0173589 C4.70548375,14.2996194 5.01233948,14.4688585 5.32973606,14.4688585 C5.46676706,14.4688585 5.59735642,14.4384072 5.71857615,14.3769189 C5.95340277,14.260384 8.18162045,13.3831514 9.53084871,12.8572803 Z M8.41761827,1 L11.1014347,3.64985151 L10.3313674,4.42226126 L8.41761827,4.42226126 L8.41761827,1 Z M14.5336512,5.56418622 C14.8820847,5.91203413 14.8592462,6.38637219 14.526624,6.71840883 L9.37800644,11.8875225 C9.37800644,11.8875225 6.2134103,13.1196302 5.89659932,13.2777429 C5.70159368,13.3761241 5.42167566,13.0967917 5.50600243,12.8730916 C5.61199649,12.5914167 6.73283975,9.25406785 6.73283975,9.25406785 L11.8674029,4.11072071 C12.1982683,3.77926967 12.8828377,3.9244991 13.2318568,4.27293261 L14.5336512,5.56418622 Z M6.28075459,11.867612 L6.93428703,12.4625842 L9.07290752,11.5607563 L8.75726775,11.2445309 L8.76429498,11.076463 L13.932823,5.88861003 L13.4409169,5.40490233 L8.39068055,10.394236 L7.80917723,10.3907224 L7.80507801,9.68624252 L12.785042,4.72326097 C12.6058477,4.5452378 12.2140796,4.29577111 12.1315096,4.41581963 L7.16735684,9.49182248 L6.28075459,11.867612 Z" transform="translate(16)"/>
    <path fill="#00C2C2" d="M2.71983333,5.13816667 L3.61641667,14.40325 C3.61641667,14.7328333 3.88475,15 4.21433333,15 L10.8474167,15 C11.177,15 11.4453333,14.7328333 11.4453333,14.40325 L12.3419167,5.13816667 L2.71983333,5.13816667 L2.71983333,5.13816667 Z M5.70008333,13.1893333 L4.95283333,13.1893333 L4.50425,6.78316667 L5.25091667,6.78316667 L5.70008333,13.1893333 L5.70008333,13.1893333 Z M7.9045,13.341 L7.15783333,13.341 L7.15783333,6.78258333 L7.9045,6.78258333 L7.9045,13.341 L7.9045,13.341 Z M10.1100833,13.1893333 L9.36283333,13.1893333 L9.812,6.78316667 L10.5586667,6.78316667 L10.1100833,13.1893333 Z M12.4259167,2.84158333 C12.7776667,2.84158333 13.06175,3.11925 13.0611667,3.46166667 L13.0611667,4.46383333 L2,4.46383333 L2,3.46166667 C2,3.11983333 2.28408333,2.84216667 2.63583333,2.84216667 L5.50583333,2.7605 L5.50583333,1.53841667 C5.50583333,1.196 5.87216667,1 6.22275,1 L8.93116667,1 C9.28175,1 9.56583333,1.27708333 9.56583333,1.6195 L9.56583333,2.84158333 L12.4259167,2.84158333 Z M6.025,2.11183333 L6.025,2.84158333 L9.03675,2.84158333 L9.03675,2.11183333 C9.03675,1.77058333 8.699,1.49233333 8.28425,1.49233333 L6.77866667,1.49233333 C6.36158333,1.49233333 6.025,1.77 6.025,2.11183333 Z" transform="translate(32)"/>
    <path fill="#009292" d="M15.4883333,6.20105687 C15.4883333,3.04741127 12.909591,0.49299674 9.72905687,0.49299674 C6.54724228,0.49299674 3.9685,3.04741127 3.9685,6.20105687 C3.9685,9.35342207 6.54724228,11.9078366 9.72905687,11.9078366 C12.909591,11.9078366 15.4883333,9.35342207 15.4883333,6.20105687 L15.4883333,6.20105687 Z M5.13145833,6.20105017 C5.13145833,3.68379844 7.18928769,1.64579535 9.72910033,1.64579535 C12.2675456,1.64579535 14.325375,3.68379844 14.325375,6.20105017 C14.325375,8.71693456 12.2675456,10.7556213 9.72910033,10.7556213 C7.18928769,10.7556213 5.13145833,8.71693456 5.13145833,6.20105017 Z M12.1591667,5.89591667 C12.1591667,6.39583333 12.543,6.20741667 12.543,5.51208333 C12.543,4.31508333 11.5735,3.34558333 10.3770833,3.34558333 C9.68058333,3.34558333 9.49216667,3.72941667 9.99266667,3.72941667 C11.1896667,3.72941667 12.1591667,4.6995 12.1591667,5.89591667 Z M7.09443487,6.62726778 C7.09443487,6.12735112 6.71060153,6.31576778 6.71060153,7.01110112 C6.71060153,8.20810112 7.68010153,9.17760112 8.8765182,9.17760112 C9.5730182,9.17760112 9.76143487,8.79376778 9.26093487,8.79376778 C8.06393487,8.79376778 7.09443487,7.82368445 7.09443487,6.62726778 Z M1.59191667,15.94575 L0,14.3538333 L4.52683333,9.82641667 C4.52683333,9.82641667 4.61141667,10.4943333 5.03316667,10.9160833 C5.4555,11.339 6.11875,11.4183333 6.11875,11.4183333 L2.59191667,14.94575 L1.59191667,15.94575 Z" style="mix-blend-mode:multiply" transform="translate(0 16)"/>
    <path fill="#009292" d="M9.53084871,11.8572803 L10.8638892,10.5945121 L10.8638892,15 L1,15 L1,1.03689296 L6.74007613,1.03689296 L6.74007613,5.10624503 L8.64796921,5.10624503 L5.78709165,7.97356423 C5.78709165,7.97356423 4.46655791,11.8959301 4.38340235,12.1178734 C4.27389468,12.4089179 4.32132848,12.7450537 4.5093069,13.0173589 C4.70548375,13.2996194 5.01233948,13.4688585 5.32973606,13.4688585 C5.46676706,13.4688585 5.59735642,13.4384072 5.71857615,13.3769189 C5.95340277,13.260384 8.18162045,12.3831514 9.53084871,11.8572803 Z M7.41761827,1 L10.1014347,3.64985151 L9.33136738,4.42226126 L7.41761827,4.42226126 L7.41761827,1 Z M14.2318568,2.27293261 L15.5336512,3.56418622 C15.8820847,3.91203413 15.8592462,4.38637219 15.526624,4.71840883 L10.3780064,9.88752248 C10.3780064,9.88752248 7.2134103,11.1196302 6.89659932,11.2777429 C6.70159368,11.3761241 6.42167566,11.0967917 6.50600243,10.8730916 C6.61199649,10.5914167 7.73283975,7.25406785 7.73283975,7.25406785 L12.8674029,2.11072071 C13.1982683,1.77926967 13.8828377,1.9244991 14.2318568,2.27293261 Z M7.28075459,9.867612 L7.93428703,10.4625842 L10.0729075,9.56075626 L9.75726775,9.24453089 L9.76429498,9.07646296 L14.932823,3.88861003 L14.4409169,3.40490233 L9.39068055,8.394236 L8.80917723,8.39072238 L8.80507801,7.68624252 L13.785042,2.72326097 C13.6058477,2.5452378 13.2140796,2.29577111 13.1315096,2.41581963 L8.16735684,7.49182248 L7.28075459,9.867612 Z" style="mix-blend-mode:multiply" transform="translate(16 16)"/>
    <path fill="#009292" d="M2.71983333,5.13816667 L3.61641667,14.40325 C3.61641667,14.7328333 3.88475,15 4.21433333,15 L10.8474167,15 C11.177,15 11.4453333,14.7328333 11.4453333,14.40325 L12.3419167,5.13816667 L2.71983333,5.13816667 L2.71983333,5.13816667 Z M5.70008333,13.1893333 L4.95283333,13.1893333 L4.50425,6.78316667 L5.25091667,6.78316667 L5.70008333,13.1893333 L5.70008333,13.1893333 Z M7.9045,13.341 L7.15783333,13.341 L7.15783333,6.78258333 L7.9045,6.78258333 L7.9045,13.341 L7.9045,13.341 Z M10.1100833,13.1893333 L9.36283333,13.1893333 L9.812,6.78316667 L10.5586667,6.78316667 L10.1100833,13.1893333 Z M12.4259167,1.84158333 C12.7776667,1.84158333 13.06175,2.11925 13.0611667,2.46166667 L13.0611667,3.46383333 L2,3.46383333 L2,2.46166667 C2,2.11983333 2.28408333,1.84216667 2.63583333,1.84216667 L5.50583333,1.7605 L5.50583333,0.538416667 C5.50583333,0.196 5.87216667,0 6.22275,0 L8.93116667,0 C9.28175,0 9.56583333,0.277083333 9.56583333,0.6195 L9.56583333,1.84158333 L12.4259167,1.84158333 Z M6.025,1.11183333 L6.025,1.84158333 L9.03675,1.84158333 L9.03675,1.11183333 C9.03675,0.770583333 8.699,0.492333333 8.28425,0.492333333 L6.77866667,0.492333333 C6.36158333,0.492333333 6.025,0.77 6.025,1.11183333 Z" style="mix-blend-mode:multiply" transform="translate(32 16)"/>
  </g>
</svg>
