<svg xmlns="http://www.w3.org/2000/svg" width="64" height="64" viewBox="0 0 64 64">
  <path fill="#FFF" fill-rule="evenodd" d="M33.3195917,26.0905489 L34.8743903,26.0905489 C35.3833144,26.0905489 35.8831143,26.2256694 36.3227122,26.4821015 L53.5690538,36.5424674 C56.1033716,38.0208194 55.0547208,43.3368904 52.1207318,43.3368904 L43.497561,43.3368904 L43.497561,50.6786588 C43.497561,51.7832283 42.6021305,52.6786588 41.497561,52.6786588 L22.502439,52.6786588 C21.3978695,52.6786588 20.502439,51.7832283 20.502439,50.6786588 L20.502439,43.3368904 L11.8792682,43.3368904 C8.94527921,43.3368904 7.89662844,38.0208194 10.4309462,36.5424674 L27.6772878,26.4821015 C28.1168857,26.2256694 28.6166856,26.0905489 29.1256097,26.0905489 L30.6706524,26.0905489 C30.5980631,25.9499796 30.557927,25.7954545 30.557927,25.6332595 L30.557927,21.5176553 C30.557927,20.8682309 31.2013811,20.3417683 31.9951221,20.3417683 C32.0599294,20.3417683 32.1237348,20.3452779 32.18627,20.3520775 C32.2429962,20.3452708 32.3007385,20.3417683 32.3592988,20.3417683 C34.1452159,20.3417683 35.5929878,18.8939964 35.5929878,17.1080793 C35.5929878,15.3221622 34.1452159,13.8743903 32.3592988,13.8743903 C30.5733816,13.8743903 29.1256097,15.3221622 29.1256097,17.1080793 C29.1256097,17.9018203 28.4821556,18.5452744 27.6884146,18.5452744 C26.8946737,18.5452744 26.2512195,17.9018203 26.2512195,17.1080793 C26.2512195,13.7346803 28.9858997,11 32.3592988,11 C35.7326978,11 38.4673781,13.7346803 38.4673781,17.1080793 C38.4673781,20.1153904 36.2940373,22.6150906 33.4323172,23.1222182 L33.4323172,25.6332595 C33.4323172,25.7954545 33.3921811,25.9499796 33.3195917,26.0905489 Z M43.497561,39.025305 L50.2712715,39.025305 L50.2712715,39.025305 C50.5474139,39.025305 50.7712715,38.8014474 50.7712715,38.525305 C50.7712715,38.3474715 50.6768159,38.1830208 50.5232071,38.0934156 L34.9911512,29.0330497 L34.9911512,29.0330497 C34.9146832,28.9884433 34.827743,28.9649391 34.7392157,28.9649391 L29.2607843,28.9649391 C29.172257,28.9649391 29.0853168,28.9884433 29.0088488,29.0330497 L13.4767929,38.0934156 L13.4767929,38.0934156 C13.238267,38.2325557 13.1576989,38.5387146 13.296839,38.7772406 C13.3864442,38.9308494 13.5508949,39.025305 13.7287285,39.025305 L20.502439,39.025305 L20.502439,37.4323172 C20.502439,36.3277477 21.3978695,35.4323172 22.502439,35.4323172 L41.497561,35.4323172 C42.6021305,35.4323172 43.497561,36.3277477 43.497561,37.4323172 L43.497561,39.025305 Z M32,64 C14.326888,64 0,49.673112 0,32 C0,14.326888 14.326888,0 32,0 C49.673112,0 64,14.326888 64,32 C64,49.673112 49.673112,64 32,64 Z M32,62 C48.5685425,62 62,48.5685425 62,32 C62,15.4314575 48.5685425,2 32,2 C15.4314575,2 2,15.4314575 2,32 C2,48.5685425 15.4314575,62 32,62 Z"/>
</svg>
