<?xml version="1.0" encoding="UTF-8" standalone="no"?>
<svg width="36px" height="36px" viewBox="0 0 36 36" version="1.1" xmlns="http://www.w3.org/2000/svg" xmlns:xlink="http://www.w3.org/1999/xlink">
    <!-- Generator: Sketch 47.1 (45422) - http://www.bohemiancoding.com/sketch -->
    <title>icon/booked</title>
    <desc>Created with Sketch.</desc>
    <defs></defs>
    <g id="Symbols" stroke="none" stroke-width="1" fill="none" fill-rule="evenodd">
        <g id="icon/booked" fill="#00C2C2">
            <path d="M32,4 C33.6568542,4 35,5.34314575 35,7 L35,32 C35,33.6568542 33.6568542,35 32,35 L4,35 C2.34314575,35 1,33.6568542 1,32 L1,7 C1,5.34314575 2.34314575,4 4,4 L4,4 L7,6 C7,6.55228475 6.55228475,7 6,7 L5,7 L5,7 C4.44771525,7 4,6.55228475 4,6 L4,4 L7,4 L7,2 C7,1.44771525 6.55228475,1 6,1 L6,1 L5,1 C4.44771525,1 4,1.44771525 4,2 L4,2 L4,4 L9,4 L9,2 L9,2 C9,1.44771525 9.44771525,1 10,1 L11,1 C11.5522847,1 12,1.44771525 12,2 L12,4 L14,4 L14,2 L14,2 C14,1.44771525 14.4477153,1 15,1 L16,1 C16.5522847,1 17,1.44771525 17,2 L17,4 L19,4 L19,2 L19,2 C19,1.44771525 19.4477153,1 20,1 L21,1 C21.5522847,1 22,1.44771525 22,2 L22,4 L24,4 L24,2 L24,2 C24,1.44771525 24.4477153,1 25,1 L26,1 C26.5522847,1 27,1.44771525 27,2 L27,4 L29,4 L29,2 L29,2 C29,1.44771525 29.4477153,1 30,1 L31,1 C31.5522847,1 32,1.44771525 32,2 L32,4 Z M4,4 L4,4 L4,4 Z M5,11 L5,11 C3.8954305,11 3,11.8954305 3,13 L3,31 C3,32.1045695 3.8954305,33 5,33 L31,33 C32.1045695,33 33,32.1045695 33,31 L33,13 C33,11.8954305 32.1045695,11 31,11 L5,11 Z M12,4 L9,4 L9,6 C9,6.55228475 9.44771525,7 10,7 L10,7 L11,7 C11.5522847,7 12,6.55228475 12,6 L12,4 Z M14,4 L14,6 C14,6.55228475 14.4477153,7 15,7 L15,7 L16,7 C16.5522847,7 17,6.55228475 17,6 L17,4 L14,4 Z M22,4 L19,4 L19,6 C19,6.55228475 19.4477153,7 20,7 L20,7 L21,7 C21.5522847,7 22,6.55228475 22,6 L22,4 Z M24,4 L24,6 C24,6.55228475 24.4477153,7 25,7 L25,7 L26,7 C26.5522847,7 27,6.55228475 27,6 L27,4 L24,4 Z M32,4 L29,4 L29,6 C29,6.55228475 29.4477153,7 30,7 L30,7 L31,7 C31.5522847,7 32,6.55228475 32,6 L32,4 Z" id="Combined-Shape"></path>
            <polygon id="Path" points="30 17 27 14 16 25 10 19 7 22 16 31"></polygon>
        </g>
    </g>
</svg>
