<svg xmlns="http://www.w3.org/2000/svg" width="36" height="36" viewBox="0 0 36 36">
  <path fill="#00C2C2" fill-rule="evenodd" d="M4,4 L32,4 C33.6568542,4 35,5.34314575 35,7 L35,32 C35,33.6568542 33.6568542,35 32,35 L4,35 C2.34314575,35 1,33.6568542 1,32 L1,7 C1,5.34314575 2.34314575,4 4,4 L4,4 Z M5,11 L5,11 C3.8954305,11 3,11.8954305 3,13 L3,31 C3,32.1045695 3.8954305,33 5,33 L31,33 C32.1045695,33 33,32.1045695 33,31 L33,13 C33,11.8954305 32.1045695,11 31,11 L5,11 Z M30,17 L16,31 L7,22 L10,19 L16,25 L27,14 L30,17 Z M5,1 L6,1 L6,1 C6.55228475,1 7,1.44771525 7,2 L7,6 C7,6.55228475 6.55228475,7 6,7 L5,7 L5,7 C4.44771525,7 4,6.55228475 4,6 L4,2 L4,2 C4,1.44771525 4.44771525,1 5,1 Z M10,1 L11,1 C11.5522847,1 12,1.44771525 12,2 L12,6 C12,6.55228475 11.5522847,7 11,7 L10,7 L10,7 C9.44771525,7 9,6.55228475 9,6 L9,2 L9,2 C9,1.44771525 9.44771525,1 10,1 Z M15,1 L16,1 C16.5522847,1 17,1.44771525 17,2 L17,6 C17,6.55228475 16.5522847,7 16,7 L15,7 L15,7 C14.4477153,7 14,6.55228475 14,6 L14,2 L14,2 C14,1.44771525 14.4477153,1 15,1 Z M20,1 L21,1 C21.5522847,1 22,1.44771525 22,2 L22,6 C22,6.55228475 21.5522847,7 21,7 L20,7 L20,7 C19.4477153,7 19,6.55228475 19,6 L19,2 L19,2 C19,1.44771525 19.4477153,1 20,1 Z M25,1 L26,1 C26.5522847,1 27,1.44771525 27,2 L27,6 C27,6.55228475 26.5522847,7 26,7 L25,7 L25,7 C24.4477153,7 24,6.55228475 24,6 L24,2 L24,2 C24,1.44771525 24.4477153,1 25,1 Z M30,1 L31,1 C31.5522847,1 32,1.44771525 32,2 L32,6 C32,6.55228475 31.5522847,7 31,7 L30,7 L30,7 C29.4477153,7 29,6.55228475 29,6 L29,2 L29,2 C29,1.44771525 29.4477153,1 30,1 Z"/>
</svg>
