<svg xmlns="http://www.w3.org/2000/svg" width="36" height="36" viewBox="0 0 36 36">
  <path fill="#00C2C2" d="M7.96559275,10.9655553 L9.54766002,12.5476225 L4.70091003,14.156895 L16.9982245,19.8956417 L30.982182,13.3149559 L25.0789098,11.9211277 L26.7413756,10.2586619 L34.1890632,12.0171437 C34.2342009,12.0259676 34.2785219,12.0378872 34.3217276,12.052713 C34.6356839,12.1564886 34.8451458,12.3880786 34.9407295,12.6575705 C34.9736738,12.7486421 34.9938831,12.8467062 34.9988159,12.9501498 C35.0001283,12.9753433 35.0005251,13.0005875 35,13.0258202 L35,28.3043478 C35,28.715187 34.7487204,29.0842238 34.3664621,29.2347808 L17.3854389,35.9229588 C17.1768975,36.0106749 16.937506,36.0291796 16.7042294,35.955812 C16.645003,35.9372811 16.5882242,35.9135478 16.5341188,35.8849531 L1.54631696,28.2547995 C1.21109432,28.0841407 1,27.7397994 1,27.3636364 L1,14.0132885 C0.995844207,13.6296252 1.20512899,13.244814 1.61519727,13.0767435 C1.64830349,13.0628449 1.68219353,13.0506914 1.71672182,13.0403757 L7.96559275,10.9655553 Z M15.4729241,8.47288664 L16.7437082,8.05094663 C16.9195938,7.99254709 17.1082482,7.9841735 17.2886162,8.0267604 L18.6514879,8.34854955 L17.0000375,10 L15.4729241,8.47288664 Z M3,15.5701964 L3,26.7505982 L16,33.3687801 L16,21.636863 L3,15.5701964 Z M18,21.6346055 L18,33.5313697 L33,27.6234413 L33,14.575782 L18,21.6346055 Z M31.0000375,4 L17.0000375,18 L8.00003749,9 L11.0000375,6 L17.0000375,12 L28.0000375,1 L31.0000375,4 Z"/>
</svg>
