<svg xmlns="http://www.w3.org/2000/svg" width="32" height="32" viewBox="0 0 32 32">
  <path fill="#FFF" d="M16.9215656,13.5 L18.003394,13.5 C18.3575033,13.5 18.705264,13.5940168 19.0111361,13.7724422 L31.0111361,20.7724422 C32.7745137,21.8010792 32.0448628,25.5 30.003394,25.5 L24.003394,25.5 L24.003394,30 C24.003394,31.1045695 23.1079635,32 22.003394,32 L10.003394,32 C8.89882455,32 8.00339405,31.1045695 8.00339405,30 L8.00339405,25.5 L2.00339405,25.5 C-0.0380747114,25.5 -0.767725644,21.8010792 0.995651999,20.7724422 L12.995652,13.7724422 C13.3015241,13.5940168 13.6492848,13.5 14.003394,13.5 L15.0784344,13.5 C15.0279267,13.4021919 15,13.2946734 15,13.1818182 L15,10.3181818 C15,9.86631248 15.4477153,9.5 16,9.5 C16.0450929,9.5 16.0894887,9.50244198 16.1330006,9.50717313 C16.1724707,9.50243698 16.2126478,9.5 16.253394,9.5 C17.4960347,9.5 18.503394,8.49264069 18.503394,7.25 C18.503394,6.00735931 17.4960347,5 16.253394,5 C15.0107534,5 14.003394,6.00735931 14.003394,7.25 C14.003394,7.80228475 13.5556788,8.25 13.003394,8.25 C12.4511093,8.25 12.003394,7.80228475 12.003394,7.25 C12.003394,4.90278981 13.9061839,3 16.253394,3 C18.6006042,3 20.503394,4.90278981 20.503394,7.25 C20.503394,9.34248629 18.9911841,11.081777 17,11.4346363 L17,13.1818182 C17,13.2946734 16.9720733,13.4021919 16.9215656,13.5 Z M24.003394,22.5 L28.1539338,22.5 L28.1539338,22.5 C28.4300761,22.5 28.6539338,22.2761424 28.6539338,22 C28.6539338,21.8221665 28.5594781,21.6577157 28.4058693,21.5681105 L18.120155,15.5681105 L18.120155,15.5681105 C18.043687,15.5235042 17.9567468,15.5 17.8682195,15.5 L14.1385686,15.5 L14.1385686,15.5 C14.0500413,15.5 13.9631011,15.5235042 13.8866331,15.5681105 L13.8866331,15.5681105 L3.60091882,21.5681105 L3.60091882,21.5681105 C3.36239286,21.7072507 3.28182474,22.0134096 3.42096488,22.2519355 C3.51057005,22.4055444 3.6750208,22.5 3.85285433,22.5 L8.00339405,22.5 L8.00339405,22 C8.00339405,20.8954305 8.89882455,20 10.003394,20 L22.003394,20 C23.1079635,20 24.003394,20.8954305 24.003394,22 L24.003394,22.5 Z"/>
</svg>
