<?xml version="1.0" encoding="UTF-8" standalone="no"?>
<svg width="50px" height="30px" viewBox="0 0 50 30" version="1.1" xmlns="http://www.w3.org/2000/svg" xmlns:xlink="http://www.w3.org/1999/xlink">
    <!-- Generator: Sketch 47.1 (45422) - http://www.bohemiancoding.com/sketch -->
    <title>icon/eye</title>
    <desc>Created with Sketch.</desc>
    <defs></defs>
    <g id="Symbols" stroke="none" stroke-width="1" fill="none" fill-rule="evenodd">
        <g id="icon/eye">
            <path d="M14.956116,2.88464287 C17.9694661,3.98388937 20,5.85421804 20,7 C20,8.70129 15.5232485,12 9.99958224,12 C9.13561281,12 8.29724326,11.9180023 7.49760735,11.7733474 L6.22912378,13.2850672 C5.87413612,13.7081251 5.24634158,13.7657704 4.82031731,13.4082936 C4.39724265,13.0532918 4.34655414,12.4171787 4.6970349,11.999492 L14.3389002,0.508764398 C14.6938879,0.0857065721 15.3216824,0.0280612507 15.7477067,0.385538052 C16.1707813,0.740539846 16.2214699,1.37665291 15.8709891,1.79433962 L14.956116,2.88464287 Z M8.65193949,10.3976679 C9.05360005,10.4517641 9.48517143,10.4813202 9.94777959,10.4813202 C14.0577349,10.4813202 15.7179262,8.18612833 15.7179262,7 C15.7179262,6.27988814 15.1060061,5.15099312 13.705482,4.37509043 L12.2925557,6.05895044 C12.4129326,6.35242015 12.4794252,6.67457625 12.4794252,7.01256492 C12.4794252,8.37870403 11.3931027,9.48617859 10.0530559,9.48617859 C9.85415934,9.48617859 9.6608523,9.46178091 9.47585723,9.41576099 L8.65193949,10.3976679 Z M11.054177,2.03983787 L9.81256966,3.51952791 C5.80137423,3.5700391 4.17763295,5.86424352 4.17763295,7 C4.17763295,7.51655836 4.51351375,8.27274875 5.2571263,8.94849389 L3.86417742,10.6085457 C1.51266936,9.49235321 0,7.9587484 0,7 C0,5.350645 4.477587,2 9.99958224,2 C10.3557737,2 10.7076119,2.01371691 11.054177,2.03983787 Z M8.03742847,5.63505879 C8.14292819,5.47493355 8.26630101,5.32807082 8.40463408,5.19744019 L8.03742714,5.63506037 Z" id="eye-watch-view-show" fill="#FF595A"></path>
            <path d="M39.9995822,2 C34.477587,2 30,5.350645 30,7 C30,8.649355 34.4767515,12 39.9995822,12 C45.5232485,12 50,8.70129 50,7 C50,5.29871 45.5232485,2 39.9995822,2 L39.9995822,2 Z M39.9477796,10.4813202 C35.8378243,10.4813202 34.177633,8.14843357 34.177633,7 C34.177633,5.85156643 35.8378243,3.51867985 39.9477796,3.51867985 C44.0577349,3.51867985 45.7179262,5.81387167 45.7179262,7 C45.7179262,8.18612833 44.0577349,10.4813202 39.9477796,10.4813202 Z M40.0530559,9.48617859 C41.3931027,9.48617859 42.4794252,8.37870403 42.4794252,7.01256492 C42.4794252,5.64642581 41.3931027,4.53895125 40.0530559,4.53895125 C38.7130092,4.53895125 37.6266867,5.64642581 37.6266867,7.01256492 C37.6266867,8.37870403 38.7130092,9.48617859 40.0530559,9.48617859 Z" id="eye-watch-view-show" fill="#FF595A"></path>
            <path d="M14.956116,18.8846429 C17.9694661,19.9838894 20,21.854218 20,23 C20,24.70129 15.5232485,28 9.99958224,28 C9.13561281,28 8.29724326,27.9180023 7.49760735,27.7733474 L6.22912378,29.2850672 C5.87413612,29.7081251 5.24634158,29.7657704 4.82031731,29.4082936 C4.39724265,29.0532918 4.34655414,28.4171787 4.6970349,27.999492 L14.3389002,16.5087644 C14.6938879,16.0857066 15.3216824,16.0280613 15.7477067,16.3855381 C16.1707813,16.7405398 16.2214699,17.3766529 15.8709891,17.7943396 L14.956116,18.8846429 Z M8.65193949,26.3976679 C9.05360005,26.4517641 9.48517143,26.4813202 9.94777959,26.4813202 C14.0577349,26.4813202 15.7179262,24.1861283 15.7179262,23 C15.7179262,22.2798881 15.1060061,21.1509931 13.705482,20.3750904 L12.2925557,22.0589504 C12.4129326,22.3524202 12.4794252,22.6745763 12.4794252,23.0125649 C12.4794252,24.378704 11.3931027,25.4861786 10.0530559,25.4861786 C9.85415934,25.4861786 9.6608523,25.4617809 9.47585723,25.415761 L8.65193949,26.3976679 Z M11.054177,18.0398379 L9.81256966,19.5195279 C5.80137423,19.5700391 4.17763295,21.8642435 4.17763295,23 C4.17763295,23.5165584 4.51351375,24.2727487 5.2571263,24.9484939 L3.86417742,26.6085457 C1.51266936,25.4923532 0,23.9587484 0,23 C0,21.350645 4.477587,18 9.99958224,18 C10.3557737,18 10.7076119,18.0137169 11.054177,18.0398379 Z M8.03742847,21.6350588 C8.14292819,21.4749335 8.26630101,21.3280708 8.40463408,21.1974402 L8.03742714,21.6350604 Z" id="eye-watch-view-show" fill="#FF1F1F"></path>
            <path d="M39.9995822,18 C34.477587,18 30,21.350645 30,23 C30,24.649355 34.4767515,28 39.9995822,28 C45.5232485,28 50,24.70129 50,23 C50,21.29871 45.5232485,18 39.9995822,18 L39.9995822,18 Z M39.9477796,26.4813202 C35.8378243,26.4813202 34.177633,24.1484336 34.177633,23 C34.177633,21.8515664 35.8378243,19.5186798 39.9477796,19.5186798 C44.0577349,19.5186798 45.7179262,21.8138717 45.7179262,23 C45.7179262,24.1861283 44.0577349,26.4813202 39.9477796,26.4813202 Z M40.0530559,25.4861786 C41.3931027,25.4861786 42.4794252,24.378704 42.4794252,23.0125649 C42.4794252,21.6464258 41.3931027,20.5389512 40.0530559,20.5389512 C38.7130092,20.5389512 37.6266867,21.6464258 37.6266867,23.0125649 C37.6266867,24.378704 38.7130092,25.4861786 40.0530559,25.4861786 Z" id="eye-watch-view-show" fill="#FF1F1F"></path>
        </g>
    </g>
</svg>
