<svg xmlns="http://www.w3.org/2000/svg" width="50" height="30" viewBox="0 0 50 30">
  <g fill="#FFF" fill-rule="evenodd">
    <path fill-opacity=".7" d="M14.956116 2.88464287C17.9694661 3.98388937 20 5.85421804 20 7 20 8.70129 15.5232485 12 9.99958224 12 9.13561281 12 8.29724326 11.9180023 7.49760735 11.7733474L6.22912378 13.2850672C5.87413612 13.7081251 5.24634158 13.7657704 4.82031731 13.4082936 4.39724265 13.0532918 4.34655414 12.4171787 4.6970349 11.999492L14.3389002.508764398C14.6938879.0857065721 15.3216824.0280612507 15.7477067.385538052 16.1707813.740539846 16.2214699 1.37665291 15.8709891 1.79433962L14.956116 2.88464287zM8.65193949 10.3976679C9.05360005 10.4517641 9.48517143 10.4813202 9.94777959 10.4813202 14.0577349 10.4813202 15.7179262 8.18612833 15.7179262 7 15.7179262 6.27988814 15.1060061 5.15099312 13.705482 4.37509043L12.2925557 6.05895044C12.4129326 6.35242015 12.4794252 6.67457625 12.4794252 7.01256492 12.4794252 8.37870403 11.3931027 9.48617859 10.0530559 9.48617859 9.85415934 9.48617859 9.6608523 9.46178091 9.47585723 9.41576099L8.65193949 10.3976679zM11.054177 2.03983787L9.81256966 3.51952791C5.80137423 3.5700391 4.17763295 5.86424352 4.17763295 7 4.17763295 7.51655836 4.51351375 8.27274875 5.2571263 8.94849389L3.86417742 10.6085457C1.51266936 9.49235321 0 7.9587484 0 7 0 5.350645 4.477587 2 9.99958224 2 10.3557737 2 10.7076119 2.01371691 11.054177 2.03983787zM8.03742847 5.63505879C8.14292819 5.47493355 8.26630101 5.32807082 8.40463408 5.19744019L8.03742714 5.63506037zM39.9995822 2C34.477587 2 30 5.350645 30 7 30 8.649355 34.4767515 12 39.9995822 12 45.5232485 12 50 8.70129 50 7 50 5.29871 45.5232485 2 39.9995822 2L39.9995822 2zM39.9477796 10.4813202C35.8378243 10.4813202 34.177633 8.14843357 34.177633 7 34.177633 5.85156643 35.8378243 3.51867985 39.9477796 3.51867985 44.0577349 3.51867985 45.7179262 5.81387167 45.7179262 7 45.7179262 8.18612833 44.0577349 10.4813202 39.9477796 10.4813202zM40.0530559 9.48617859C41.3931027 9.48617859 42.4794252 8.37870403 42.4794252 7.01256492 42.4794252 5.64642581 41.3931027 4.53895125 40.0530559 4.53895125 38.7130092 4.53895125 37.6266867 5.64642581 37.6266867 7.01256492 37.6266867 8.37870403 38.7130092 9.48617859 40.0530559 9.48617859z"/>
    <path d="M14.956116 18.8846429C17.9694661 19.9838894 20 21.854218 20 23 20 24.70129 15.5232485 28 9.99958224 28 9.13561281 28 8.29724326 27.9180023 7.49760735 27.7733474L6.22912378 29.2850672C5.87413612 29.7081251 5.24634158 29.7657704 4.82031731 29.4082936 4.39724265 29.0532918 4.34655414 28.4171787 4.6970349 27.999492L14.3389002 16.5087644C14.6938879 16.0857066 15.3216824 16.0280613 15.7477067 16.3855381 16.1707813 16.7405398 16.2214699 17.3766529 15.8709891 17.7943396L14.956116 18.8846429zM8.65193949 26.3976679C9.05360005 26.4517641 9.48517143 26.4813202 9.94777959 26.4813202 14.0577349 26.4813202 15.7179262 24.1861283 15.7179262 23 15.7179262 22.2798881 15.1060061 21.1509931 13.705482 20.3750904L12.2925557 22.0589504C12.4129326 22.3524202 12.4794252 22.6745763 12.4794252 23.0125649 12.4794252 24.378704 11.3931027 25.4861786 10.0530559 25.4861786 9.85415934 25.4861786 9.6608523 25.4617809 9.47585723 25.415761L8.65193949 26.3976679zM11.054177 18.0398379L9.81256966 19.5195279C5.80137423 19.5700391 4.17763295 21.8642435 4.17763295 23 4.17763295 23.5165584 4.51351375 24.2727487 5.2571263 24.9484939L3.86417742 26.6085457C1.51266936 25.4923532 0 23.9587484 0 23 0 21.350645 4.477587 18 9.99958224 18 10.3557737 18 10.7076119 18.0137169 11.054177 18.0398379zM8.03742847 21.6350588C8.14292819 21.4749335 8.26630101 21.3280708 8.40463408 21.1974402L8.03742714 21.6350604zM39.9995822 18C34.477587 18 30 21.350645 30 23 30 24.649355 34.4767515 28 39.9995822 28 45.5232485 28 50 24.70129 50 23 50 21.29871 45.5232485 18 39.9995822 18L39.9995822 18zM39.9477796 26.4813202C35.8378243 26.4813202 34.177633 24.1484336 34.177633 23 34.177633 21.8515664 35.8378243 19.5186798 39.9477796 19.5186798 44.0577349 19.5186798 45.7179262 21.8138717 45.7179262 23 45.7179262 24.1861283 44.0577349 26.4813202 39.9477796 26.4813202zM40.0530559 25.4861786C41.3931027 25.4861786 42.4794252 24.378704 42.4794252 23.0125649 42.4794252 21.6464258 41.3931027 20.5389512 40.0530559 20.5389512 38.7130092 20.5389512 37.6266867 21.6464258 37.6266867 23.0125649 37.6266867 24.378704 38.7130092 25.4861786 40.0530559 25.4861786z"/>
  </g>
</svg>
