<svg xmlns="http://www.w3.org/2000/svg" width="32" height="32" viewBox="0 0 32 32">
  <g fill="#FFF" fill-rule="evenodd">
    <path fill-rule="nonzero" d="M25 13C25.0427695 13.3421557 25.1916637 14.8234105 25.4466826 17.4437644L25.4467634 17.4437565C25.4735162 17.718645 25.2723625 17.9631735 24.9974741 17.9899263 24.9813749 17.9914931 24.9652091 17.9922779 24.9490339 17.9922779L6.39100422 17.9922779 6.39100422 17.9922779C6.11486185 17.9922779 5.89100422 17.7684203 5.89100422 17.4922779 5.89100422 17.4003607 5.91634168 17.3102223 5.96423249 17.2317671L8.26049698 13.4700011C8.44323533 13.1776197 8.76370525 13 9.10849528 13L23.15465 13C23.7069347 13 24.15465 12.5522847 24.15465 12 24.15465 11.4477153 23.7069347 11 23.15465 11L9.10849528 11C8.07412518 11 7.11271543 11.5328591 6.56450037 12.4100032L3.10825103 17.9400021C2.90958653 18.2578653 2.80424764 18.6251606 2.80424764 19 2.80424764 20.1045695 3.69967814 21 4.80424764 21 20.701025 20.9959198 24.9800514 20.9926447 25.1065398 20.9768336 26.7505996 20.7713262 27.9167767 19.2719556 27.7112692 17.6278958 27.6427667 17.0798759 27.1429765 16.6911502 26.5949566 16.7596527 26.0469366 16.8281551 24.9314975 12.4519801 25 13zM24.8584703 21.9922779C24.8173255 21.997421 24.7759006 22 24.7344356 22L4.80424764 22C4.25196289 22 3.80424764 22.4477153 3.80424764 23 3.80424764 23.5522847 4.25196289 24 4.80424764 24L24.7344356 24C24.8588306 24 24.9831053 23.9922629 25.1065398 23.9768336 25.6545597 23.9083311 26.0432854 23.408541 25.9747829 22.860521 25.9062804 22.3125011 25.4064902 21.9237754 24.8584703 21.9922779z"/>
    <path fill-rule="nonzero" d="M9.47038183,7 L23.2344356,7 C23.7387588,7 24.1641598,7.37553644 24.2267134,7.87596527 L25.730055,17.900271 C25.8119811,18.4464454 26.3211573,18.8227931 26.8673318,18.7408669 C27.4135062,18.6589407 27.7898538,18.1497645 27.7079277,17.6035901 L26.2079277,7.60359008 C26.0236084,6.12660933 24.7474054,5 23.2344356,5 L9.47038183,5 C8.91809708,5 8.47038183,5.44771525 8.47038183,6 C8.47038183,6.55228475 8.91809708,7 9.47038183,7 Z"/>
    <rect width="2" height="4" x="14" y="26" rx="1"/>
    <rect width="2" height="3" x="10" y="26" rx="1"/>
    <rect width="2" height="2" x="6" y="26" rx="1"/>
  </g>
</svg>
