<svg xmlns="http://www.w3.org/2000/svg" width="32" height="32" viewBox="0 0 32 32">
  <path fill="#00C2C2" d="M27.7073382,17.59966 C27.7081574,17.6049961 27.7089355,17.6103481 27.7096722,17.6157158 C27.7104631,17.6214591 27.7111995,17.6271647 27.7118863,17.6328655 C27.9144259,19.2749761 26.7489429,20.7715332 25.1065398,20.9768336 C24.9800514,20.9926447 20.701025,20.9959198 4.80424764,21 C3.69967814,21 2.80424764,20.1045695 2.80424764,19 C2.80424764,18.6251606 2.90958653,18.2578653 3.10825103,17.9400021 L6.56450037,12.4100032 C7.11271543,11.5328591 8.07412518,11 9.10849528,11 L23.15465,11 C23.7069347,11 24.15465,11.4477153 24.15465,12 C24.15465,12.5522847 23.7069347,13 23.15465,13 L9.10849528,13 C8.76370525,13 8.44323533,13.1776197 8.26049698,13.4700011 L5.96423249,17.2317671 C5.91634168,17.3102223 5.89100422,17.4003607 5.89100422,17.4922779 C5.89100422,17.7684203 6.11486185,17.9922779 6.39100422,17.9922779 L24.9490339,17.9922779 C24.9652091,17.9922779 24.9813749,17.9914931 24.9974741,17.9899263 C25.2723625,17.9631735 25.4735162,17.718645 25.4467634,17.4437565 L25.4466826,17.4437644 C25.2184621,15.0987676 25.0752341,13.6660465 25.0169988,13.1456012 L24.2267134,7.87596527 C24.1641598,7.37553644 23.7387588,7 23.2344356,7 L9.47038183,7 C8.91809708,7 8.47038183,6.55228475 8.47038183,6 C8.47038183,5.44771525 8.91809708,5 9.47038183,5 L23.2344356,5 C24.7474054,5 26.0236084,6.12660933 26.2079277,7.60359008 L27.7073382,17.59966 Z M24.8584703,21.9922779 C25.4064902,21.9237754 25.9062804,22.3125011 25.9747829,22.860521 C26.0432854,23.408541 25.6545597,23.9083311 25.1065398,23.9768336 C24.9831053,23.9922629 24.8588306,24 24.7344356,24 L4.80424764,24 C4.25196289,24 3.80424764,23.5522847 3.80424764,23 C3.80424764,22.4477153 4.25196289,22 4.80424764,22 L24.7344356,22 C24.7759006,22 24.8173255,21.997421 24.8584703,21.9922779 Z M15,26 C15.5522847,26 16,26.4477153 16,27 L16,29 C16,29.5522847 15.5522847,30 15,30 C14.4477153,30 14,29.5522847 14,29 L14,27 C14,26.4477153 14.4477153,26 15,26 Z M11,26 C11.5522847,26 12,26.4477153 12,27 L12,28 C12,28.5522847 11.5522847,29 11,29 C10.4477153,29 10,28.5522847 10,28 L10,27 C10,26.4477153 10.4477153,26 11,26 Z M7,26 C7.55228475,26 8,26.4477153 8,27 C8,27.5522847 7.55228475,28 7,28 C6.44771525,28 6,27.5522847 6,27 C6,26.4477153 6.44771525,26 7,26 Z"/>
</svg>
