<svg xmlns="http://www.w3.org/2000/svg" width="32" height="32" viewBox="0 0 32 32">
  <path fill="#FFF" fill-rule="evenodd" d="M24,9.0628745 C23.4471782,8.41722548 22.7643822,7.89832193 22,7.53806214 L22,6 C22,5.44771525 21.5522847,5 21,5 L9,5 C8.44771525,5 8,5.44771525 8,6 L8,24 C8,25.1045695 8.8954305,26 10,26 L19.8230878,26 L20.546865,28.3800831 C20.579201,28.4820473 20.579201,28.4820473 20.6163455,28.5823598 C20.8313471,29.1424581 21.1960193,29.6010446 21.6472186,29.9300059 C21.4387773,29.9758408 21.22221,30 21,30 L9,30 C7.34314575,30 6,28.6568542 6,27 L6,4 L6,4 C6,2.8954305 6.8954305,2 8,2 L8,2 L22,2 C23.1045695,2 24,2.8954305 24,4 L24,9.0628745 Z M15,27 C14.4477153,27 14,27.4477153 14,28 C14,28.5522847 14.4477153,29 15,29 C15.5522847,29 16,28.5522847 16,28 C16,27.4477153 15.5522847,27 15,27 Z M13.5,3 C13.2238576,3 13,3.22385763 13,3.5 C13,3.77614237 13.2238576,4 13.5,4 L16.5,4 C16.7761424,4 17,3.77614237 17,3.5 C17,3.22385763 16.7761424,3 16.5,3 L13.5,3 Z M15.3671517,13.5358756 C14.8034464,12.0673732 15.1633815,10.4714686 16.1619428,9.38831435 C16.3816263,9.48340863 16.5586224,9.66369266 16.6471487,9.8943116 L17.2514936,11.468684 C17.3994819,11.8542065 17.5026993,11.9935855 17.6424648,12.1144915 C17.7822304,12.2353975 17.9474632,12.3089638 18.1308353,12.331928 C18.3142073,12.3548921 18.486852,12.3383349 18.8723745,12.1903467 L19.3305722,12.014461 C19.7160948,11.8664728 19.8554737,11.7632554 19.9763797,11.6234898 C20.0972857,11.4837243 20.1708521,11.3184915 20.1938163,11.1351194 C20.2167804,10.9517473 20.2002232,10.7791027 20.0522349,10.3935801 L19.44789,8.81920775 C19.3593637,8.58858881 19.3702639,8.33617814 19.46989,8.11851239 C20.9367373,8.25528496 22.2720898,9.2004296 22.8357951,10.668932 C23.4309698,12.2194153 22.9964991,13.9119224 21.8678453,14.9929928 L26.6449128,25.1976077 C26.8790661,25.6977984 26.6634003,26.2931018 26.1632096,26.5272551 C26.1416802,26.5373336 26.1197983,26.5466412 26.0976055,26.5551602 L23.43499,27.5772426 C22.9193877,27.7751637 22.3409627,27.5176323 22.1430416,27.0020301 C22.1345226,26.9798373 22.1267976,26.9573479 22.1198814,26.9346045 L18.8231801,16.0936678 C17.3211314,15.9879487 15.9423813,15.0343999 15.3671517,13.5358756 Z"/>
</svg>
