<svg xmlns="http://www.w3.org/2000/svg" width="36" height="36" viewBox="0 0 36 36">
  <path fill="#00C2C2" fill-rule="evenodd" d="M15,23 L13,25 L4,25 C1.790861,25 2.705415e-16,23.209139 0,21 L0,8 L0,8 C-2.705415e-16,5.790861 1.790861,4 4,4 L4,4 L29,4 C31.209139,4 33,5.790861 33,8 L33,17 L31,19 L31,13 L2,13 L2,9 L31,9 L31,8 C31,6.8954305 30.1045695,6 29,6 L4,6 C2.8954305,6 2,6.8954305 2,8 L2,21 C2,22.1045695 2.8954305,23 4,23 L15,23 Z M17,23 L27,23 L25,25 L19,25 L17,23 Z M13,16 L21,16 C21.5522847,16 22,16.4477153 22,17 C22,17.5522847 21.5522847,18 21,18 L13,18 C12.4477153,18 12,17.5522847 12,17 C12,16.4477153 12.4477153,16 13,16 Z M9,19 L25,19 C25.5522847,19 26,19.4477153 26,20 C26,20.5522847 25.5522847,21 25,21 L9,21 C8.44771525,21 8,20.5522847 8,20 C8,19.4477153 8.44771525,19 9,19 Z M36,22 L22,36 L13,27 L16,24 L22,30 L33,19 L36,22 Z"/>
</svg>
