<?xml version="1.0" encoding="UTF-8" standalone="no"?>
<svg width="85px" height="85px" viewBox="0 0 85 85" version="1.1" xmlns="http://www.w3.org/2000/svg" xmlns:xlink="http://www.w3.org/1999/xlink">
    <!-- Generator: Sketch 47.1 (45422) - http://www.bohemiancoding.com/sketch -->
    <title>icon/pickup_circle</title>
    <desc>Created with Sketch.</desc>
    <defs></defs>
    <g id="Symbols" stroke="none" stroke-width="1" fill="none" fill-rule="evenodd">
        <g id="icon/pickup_circle">
            <path d="M61.9159753,6.0172397 C60.693792,8.01053034 60,10.3932507 60,13 C60,19.4035594 65.5964406,25 73,25 C75.1790152,25 77.2645728,24.3519783 79.0679645,23.244643 C82.1019174,28.9945446 83.8194444,35.5466973 83.8194444,42.5 C83.8194444,65.320099 65.320099,83.8194444 42.5,83.8194444 C19.679901,83.8194444 1.18055556,65.320099 1.18055556,42.5 C1.18055556,19.679901 19.679901,1.18055556 42.5,1.18055556 C49.5181318,1.18055556 56.1275986,2.93025864 61.9159753,6.0172397 Z M44.2660897,47.3850901 L49.4557487,52.5001315 L64.6031359,46.4486384 L59.4134768,41.333597 L44.2660897,47.3850901 Z M44.2063955,49.4538651 L44.2063955,59.9133971 L59.1000826,53.6361855 L59.1000826,50.4015095 L49.3419567,54.343188 L44.2063955,49.4538651 Z M27.275646,41.3578478 L22.1606047,46.4728891 L37.0916006,52.5243822 L42.2066419,47.4093409 L27.275646,41.3578478 Z M37.1307749,54.8505881 L27.4864409,50.4015095 L27.4864409,53.6361855 L42.2066419,59.9133971 L42.2066419,49.9593998 L37.1307749,54.8505881 Z M64.599405,35.4443974 L51.5991413,28.3333333 L44.2511661,32.8906076 L58.0125301,39.4420391 L64.599405,35.4443974 Z M42.396917,32.9969378 L33.0622464,30.0831177 L20.0694444,35.7484644 L27.4659211,39.1510302 L42.396917,32.9969378 Z" id="main_icon" fill="#00C2C2"></path>
            <circle id="notification_bg" fill="#FF595A" cx="72.5" cy="12.5" r="10.5"></circle>
            <text id="quantity" font-family="Muli-Bold, Muli" font-size="17" font-weight="bold" fill="#FFFFFF">
                <tspan x="68" y="19">3</tspan>
            </text>
        </g>
    </g>
</svg>
