<svg xmlns="http://www.w3.org/2000/svg" width="32" height="32" viewBox="0 0 32 32">
  <g fill="#FFF" fill-rule="evenodd">
    <path d="M18.6747483,7.83369969 L18.9280608,4.16075743 C18.931821,4.10623562 18.9337028,4.0516005 18.9337028,3.99694919 C18.9337028,2.6820671 17.8677802,1.61614457 16.5528982,1.61614457 L16.5528982,1.61614457 L16.5528982,1.61614457 C16.4858067,1.61614457 16.4187464,1.61902969 16.3519029,1.62479195 C15.0642014,1.73579857 14.1103017,2.86967554 14.2213083,4.15737703 L14.2213083,4.15737703 L16.5594837,31.2807311 C16.5700636,31.4034602 16.6684667,31.5001915 16.791359,31.508667 C16.929103,31.5181668 17.0484677,31.4142044 17.0579675,31.2764604 L17.0579675,31.2764604 L18.5619936,9.46860481 C18.2227299,9.05880731 17.9882161,8.78121104 17.858452,8.63581598 C17.8111074,8.58276837 17.7619779,8.53003482 17.7110636,8.47761533 C17.5104102,8.86785055 17.0962464,9.12702723 16.6292501,9.10778145 C15.9742671,9.08078839 15.4478643,8.55894294 15.4151771,7.90421943 L15.2825741,5.24818544 L15.2825741,5.24818544 C15.2451594,4.49877021 15.8223499,3.86091853 16.5717652,3.82350384 C16.587856,3.8227005 16.6039599,3.82218344 16.6200692,3.8219529 L16.6200692,3.8219529 L16.6200692,3.8219529 C17.3525753,3.81147004 17.9548868,4.39678552 17.9653697,5.12929162 C17.9657463,5.15560331 17.9653398,5.18192039 17.9641507,5.2082079 L17.8729507,7.22453412 L18.6747483,7.83369969 Z" transform="rotate(21 16.573 16.563)"/>
    <path fill-rule="nonzero" d="M15.5316761,5.57188496 L15.7255273,7.67796212 C14.9282535,8.12442191 14.2011995,8.88761375 13.5443653,9.96753766 C10.0893498,15.6480485 7.67582414,16.8942157 5.03638333,16.7048593 C2.19450226,16.5009796 0.00188133486,14.5267927 0.00188133486,11.6703573 C0.00188133486,8.81392187 2.17994792,6.63585528 5.03638333,6.63585528 C6.9398705,6.63585528 8.43021122,7.53752931 9.37215332,9.25121862 C9.65595654,9.76754604 9.46745843,10.4161801 8.951131,10.6999833 C8.43480358,10.9837865 7.78616954,10.7952884 7.50236633,10.278961 C6.93256775,9.24231794 6.15535172,8.76948078 5.03638333,8.76948078 C3.35831674,8.76948078 2.13550683,9.99229069 2.13550683,11.6703573 C2.13550683,13.3484239 3.37454447,14.4061313 5.03638333,14.5712338 C7.35176859,14.8012656 8.71651946,13.6907524 12.0421333,8.52407838 C12.8749702,7.23018284 14.070448,6.25771115 15.5316761,5.57188496 Z M23.0430722,7.75622088 C24.2454879,9.14593801 25.4530323,10.4136062 27.3279292,10.8267303 C28.820882,11.155695 29.9128837,10.6577175 30.4532976,9.84709668 C30.7801183,9.35686562 31.411345,9.11382441 31.9015761,9.44064512 C32.3918072,9.76746583 32.5242774,10.4298172 32.1974567,10.9200482 C31.228793,12.3730439 29.7799334,13.1100818 27.5774837,12.8960741 C22.9329134,12.4447704 21.5149069,7.26994688 18.7192421,7.0353041 L18.5915609,5.04654463 C19.8706944,4.90142919 21.3545316,5.80465461 23.0430722,7.75622088 Z" transform="rotate(21 16.19 10.877)"/>
  </g>
</svg>
