<svg xmlns="http://www.w3.org/2000/svg" width="32" height="32" viewBox="0 0 32 32">
  <path fill="#FFF" fill-rule="evenodd" d="M18.9455312,6.35618524 L19.087191,4.30216757 C19.0909512,4.24764577 19.092833,4.19301065 19.092833,4.13835933 C19.092833,2.82347725 18.0269105,1.75755471 16.7120284,1.75755471 C16.644937,1.75755471 16.5778766,1.76043984 16.5110331,1.7662021 C15.2233316,1.87720872 14.2694319,3.01108568 14.3804386,4.29878717 L14.3804386,4.29878717 L16.7186139,31.4221413 C16.7291938,31.5448703 16.8275969,31.6416016 16.9504892,31.6500772 C17.0882332,31.659577 17.2075979,31.5556145 17.2170977,31.4178705 L17.2170977,31.4178705 L18.7211238,9.61001495 C18.3818602,9.20021746 18.1473463,8.92262118 18.0175822,8.77722612 C17.9702376,8.72417851 17.9211081,8.67144496 17.8701938,8.61902547 C17.6695404,9.00926069 17.2553766,9.26843738 16.7883804,9.2491916 C16.1333974,9.22219854 15.6069945,8.70035308 15.5743073,8.04562957 L15.4417044,5.38959558 C15.4042897,4.64018035 15.9814801,4.00232868 16.7308954,3.96491399 C16.7469862,3.96411065 16.7630901,3.96359359 16.7791994,3.96336305 L16.7791994,3.96336305 L16.7791994,3.96336305 C17.5117055,3.95288019 18.1140171,4.53819566 18.1244999,5.27070176 C18.1248765,5.29701346 18.12447,5.32333053 18.123281,5.34961805 L18.0978393,5.91210425 C17.6216536,5.72401264 17.1685938,5.65435446 16.7386598,5.70312971 L16.866341,7.69188917 C19.6620058,7.92653195 21.0800122,13.1013555 25.7245826,13.5526592 C27.9270323,13.7666668 29.3758918,13.0296289 30.3445556,11.5766333 C30.6713763,11.0864022 30.538906,10.4240509 30.048675,10.0972302 C29.5584439,9.77040948 28.9272172,10.0134507 28.6003965,10.5036818 C28.0599826,11.3143026 26.9679809,11.8122801 25.4750281,11.4833154 C23.6001312,11.0701912 22.3925868,9.80252308 21.1901711,8.41280595 C20.3967622,7.49580695 19.6485489,6.81026671 18.9455312,6.35618524 Z M13.678775,6.22847003 L13.8726262,8.3345472 C13.0753524,8.78100698 12.3482984,9.54419883 11.6914641,10.6241227 C8.23644865,16.3046335 5.82292301,17.5508008 3.1834822,17.3614443 C0.341601132,17.1575646 -1.85101979,15.1833778 -1.85101979,12.3269424 C-1.85101979,9.47050694 0.327046793,7.29244036 3.1834822,7.29244036 C5.08696938,7.29244036 6.57731009,8.19411439 7.5192522,9.9078037 C7.80305541,10.4241311 7.6145573,11.0727652 7.09822988,11.3565684 C6.58190246,11.6403716 5.93326842,11.4518735 5.6494652,10.9355461 C5.07966662,9.89890301 4.30245059,9.42606586 3.1834822,9.42606586 C1.50541562,9.42606586 0.282605707,10.6488758 0.282605707,12.3269424 C0.282605707,14.0050089 1.52164334,15.0627164 3.1834822,15.2278188 C5.49886746,15.4578507 6.86361833,14.3473375 10.1892321,9.18066345 C11.0220691,7.88676792 12.2175469,6.91429622 13.678775,6.22847003 Z" transform="rotate(21 14.336 16.704)"/>
</svg>
