<svg xmlns="http://www.w3.org/2000/svg" width="32" height="32" viewBox="0 0 32 32">
  <path fill="#FFF" d="M28.5,4.5 L30.3590287,4.5 C30.5819084,4.5 30.6627299,4.5232064 30.7442114,4.56678318 C30.8256929,4.61035995 30.8896401,4.67430709 30.9332168,4.75578857 C30.9767936,4.83727006 31,4.91809162 31,5.1409713 L31,6.8590287 C31,7.08190838 30.9767936,7.16272994 30.9332168,7.24421143 C30.8896401,7.32569291 30.8256929,7.38964005 30.7442114,7.43321682 C30.6627299,7.4767936 30.5819084,7.5 30.3590287,7.5 L28.5,7.5 L28.5,9.3590287 C28.5,9.58190838 28.4767936,9.66272994 28.4332168,9.74421143 C28.3896401,9.82569291 28.3256929,9.88964005 28.2442114,9.93321682 C28.1627299,9.9767936 28.0819084,10 27.8590287,10 L26.1409713,10 C25.9180916,10 25.8372701,9.9767936 25.7557886,9.93321682 C25.6743071,9.88964005 25.6103599,9.82569291 25.5667832,9.74421143 C25.5232064,9.66272994 25.5,9.58190838 25.5,9.3590287 L25.5,7.5 L23.6409713,7.5 C23.4180916,7.5 23.3372701,7.4767936 23.2557886,7.43321682 C23.1743071,7.38964005 23.1103599,7.32569291 23.0667832,7.24421143 C23.0232064,7.16272994 23,7.08190838 23,6.8590287 L23,5.1409713 C23,4.91809162 23.0232064,4.83727006 23.0667832,4.75578857 C23.1103599,4.67430709 23.1743071,4.61035995 23.2557886,4.56678318 C23.3372701,4.5232064 23.4180916,4.5 23.6409713,4.5 L25.5,4.5 L25.5,2.6409713 C25.5,2.41809162 25.5232064,2.33727006 25.5667832,2.25578857 C25.6103599,2.17430709 25.6743071,2.11035995 25.7557886,2.06678318 C25.8372701,2.0232064 25.9180916,2 26.1409713,2 L27.8590287,2 C28.0819084,2 28.1627299,2.0232064 28.2442114,2.06678318 C28.3256929,2.11035995 28.3896401,2.17430709 28.4332168,2.25578857 C28.4767936,2.33727006 28.5,2.41809162 28.5,2.6409713 L28.5,4.5 Z M21,4.08141748 L21,6.17427275 C20.610933,6.33610775 20.2476192,6.61093578 19.9275682,6.99992331 C18.7582583,8.42109366 18.6485764,11.4451523 19.8616248,16 L25.1216941,16 C25.6470658,14.5007887 25.9319297,13.1683281 25.989176,12 L27.9993003,12 C28.019019,13.8351449 27.62195,15.9397116 26.8080931,18.3137 C26.6676071,18.7234838 26.272293,19 25.8269386,19 L19.0951697,19 C18.6200746,18.9999991 18.2061228,18.6860616 18.0916759,18.238958 C16.572013,12.3021745 16.6389304,8.21147846 18.2924282,5.96686991 C19.0841217,4.89215305 20.0213037,4.28767304 21,4.08141748 Z M19.3584906,28.9647251 C18.1179819,27.7533243 17.7270532,25.7122786 18.1857043,22.8415878 C18.2630973,22.3571864 18.6903078,22.000043 19.1923497,22.000043 L25.8033612,22 C26.2519071,22 26.6476963,22.2864436 26.7781975,22.7055161 C27.1501704,23.9001702 27.0543079,25.3232617 26.490566,26.9748036 C25.4716981,29.9596858 21.3962264,30.9546466 19.3584906,28.9647251 Z M20.0547471,24.0000236 C19.8708145,25.3534959 20.1601154,26.2175594 20.7757607,26.6592059 C21.7654358,27.3691707 24.0464155,26.9229043 24.5887395,25.7557608 C24.9087605,25.0670388 25.0348305,24.4838179 24.9918571,24 L20.0547471,24.0000236 Z M13.7075718,5.96686991 C15.3610696,8.21147846 15.427987,12.3021745 13.9083241,18.238958 C13.7938772,18.6860616 13.3799253,18.9999991 12.9048302,18.9999991 L6.17306115,19 C5.7277068,19 5.33239269,18.7234838 5.19190927,18.3136992 C3.69954879,13.9605508 3.60859986,10.5133064 4.9190598,7.97196685 C6.98694497,3.96177297 11.1227153,2.45795027 13.7075718,5.96686991 Z M12.1383753,15.9999994 C13.3514236,11.4451521 13.2417417,8.4210936 12.0724317,6.99992332 C10.6309967,5.2480143 8.31202316,5.81170682 6.7150811,8.58443695 C5.73077474,10.2934632 5.74167236,12.7564797 6.87830809,16 L12.1383753,15.9999994 Z M12.6415094,28.9647251 C10.6037736,30.9546466 6.52830189,29.9596858 5.50943396,26.9748036 C4.94569207,25.3232617 4.84982965,23.9001702 5.22184668,22.7055292 C5.35230371,22.2864436 5.74809292,22 6.19663884,22 L12.8076503,22 C13.3096922,22.000043 13.7369027,22.3571864 13.8142957,22.8415878 C14.2729468,25.7122786 13.8820181,27.7533243 12.6415094,28.9647251 Z M7.00814991,24 C6.96515616,24.4838182 7.09122084,25.0670331 7.41124672,25.7557625 C7.95357237,26.9229044 10.2345589,27.3691702 11.224237,26.6592064 C11.8398884,26.2175575 12.1291899,25.3534864 11.9452489,24 L7.00814991,24 Z"/>
</svg>
