<svg class="fl-icon-status" xmlns="http://www.w3.org/2000/svg" width="36" height="36" viewBox="0 0 36 36">
  <path fill="#00C2C2" fill-rule="evenodd" d="M29,4 L29,2 L29,2 C29,1.44771525 29.4477153,1 30,1 L31,1 C31.5522847,1 32,1.44771525 32,2 L32,4 C33.6568542,4 35,5.34314575 35,7 L35,32 C35,33.6568542 33.6568542,35 32,35 L4,35 C2.34314575,35 1,33.6568542 1,32 L1,7 C1,5.34314575 2.34314575,4 4,4 L4,4 L4,2 L4,2 C4,1.44771525 4.44771525,1 5,1 L6,1 L6,1 C6.55228475,1 7,1.44771525 7,2 L7,4 L9,4 L9,2 L9,2 C9,1.44771525 9.44771525,1 10,1 L11,1 C11.5522847,1 12,1.44771525 12,2 L12,4 L14,4 L14,2 L14,2 C14,1.44771525 14.4477153,1 15,1 L16,1 C16.5522847,1 17,1.44771525 17,2 L17,4 L19,4 L19,2 L19,2 C19,1.44771525 19.4477153,1 20,1 L21,1 C21.5522847,1 22,1.44771525 22,2 L22,4 L24,4 L24,2 L24,2 C24,1.44771525 24.4477153,1 25,1 L26,1 C26.5522847,1 27,1.44771525 27,2 L27,4 L29,4 Z M9,4 L9,6 C9,6.55228475 9.44771525,7 10,7 L10,7 L11,7 C11.5522847,7 12,6.55228475 12,6 L12,4 L9,4 Z M17,4 L14,4 L14,6 C14,6.55228475 14.4477153,7 15,7 L15,7 L16,7 C16.5522847,7 17,6.55228475 17,6 L17,4 Z M19,4 L19,6 C19,6.55228475 19.4477153,7 20,7 L20,7 L21,7 C21.5522847,7 22,6.55228475 22,6 L22,4 L19,4 Z M27,4 L24,4 L24,6 C24,6.55228475 24.4477153,7 25,7 L25,7 L26,7 C26.5522847,7 27,6.55228475 27,6 L27,4 Z M29,4 L29,6 C29,6.55228475 29.4477153,7 30,7 L30,7 L31,7 C31.5522847,7 32,6.55228475 32,6 L32,4 L29,4 Z M5,1 C4.44771525,1 4,1.44771525 4,2 L4,2 L4,6 C4,6.55228475 4.44771525,7 5,7 L5,7 L6,7 C6.55228475,7 7,6.55228475 7,6 L7,2 C7,1.44771525 6.55228475,1 6,1 L6,1 L5,1 Z M5,11 L5,11 C3.8954305,11 3,11.8954305 3,13 L3,31 C3,32.1045695 3.8954305,33 5,33 L31,33 C32.1045695,33 33,32.1045695 33,31 L33,13 C33,11.8954305 32.1045695,11 31,11 L5,11 Z M15.704,27 L15.704,18.6 L14.348,18.6 C14.2999998,18.9200016 14.2000008,19.1879989 14.048,19.404 C13.8959992,19.6200011 13.7100011,19.7939993 13.49,19.926 C13.2699989,20.0580007 13.0220014,20.1499997 12.746,20.202 C12.4699986,20.2540003 12.1840015,20.276 11.888,20.268 L11.888,21.552 L14,21.552 L14,27 L15.704,27 Z M22.376,27 L20.672,27 L20.672,21.552 L18.56,21.552 L18.56,20.268 C18.8560015,20.276 19.1419986,20.2540003 19.418,20.202 C19.6940014,20.1499997 19.9419989,20.0580007 20.162,19.926 C20.3820011,19.7939993 20.5679992,19.6200011 20.72,19.404 C20.8720008,19.1879989 20.9719998,18.9200016 21.02,18.6 L22.376,18.6 L22.376,27 Z M5,1 L6,1 L6,1 C6.55228475,1 7,1.44771525 7,2 L7,4 L4,4 L4,2 L4,2 C4,1.44771525 4.44771525,1 5,1 Z"/>
</svg>
