<svg class="fl-icon-status" xmlns="http://www.w3.org/2000/svg" width="36" height="36" viewBox="0 0 36 36">
  <g fill="#00C2C2" fill-rule="evenodd">
    <path d="M28.0861696,10.9138304 L34.2861761,13.1458327 L34.2861761,13.1458327 C34.545995,13.2393675 34.6807949,13.5258173 34.5872601,13.7856361 C34.5551964,13.874702 34.498508,13.952836 34.4237867,14.0109525 L30.8602705,16.7825762 L30.8602705,16.7825762 C30.7236915,16.8888044 30.5418986,16.9168692 30.379643,16.8567745 L24.3692843,14.6307157 L28.0861696,10.9138304 Z M11.3966959,14.3966959 L6.27711766,16.4000091 C6.18798516,16.4348871 6.09071472,16.4434491 5.99685992,16.4246781 L0.402038353,15.3057138 L0.402038353,15.3057138 C0.131258476,15.2515578 -0.0443498928,14.9881453 0.00980608251,14.7173654 C0.0441617613,14.545587 0.165911769,14.4043167 0.330736686,14.3449797 L8.42944481,11.4294448 L11.3966959,14.3966959 Z M18.1406051,23.3704891 C18.1406051,27.6049106 18.1406051,30.8825566 18.1406051,33.2034271 C18.1406051,33.4795695 17.9167474,33.7034271 17.6406051,33.7034271 C17.5745921,33.7034271 17.5092325,33.6903552 17.4482974,33.6649656 L6.44829737,29.0816323 C6.2619739,29.0039975 6.14060506,28.8219442 6.14060506,28.6200938 C6.14060506,27.3241463 6.14060506,24.3521856 6.14060506,23.7042119 L8.14060506,24.5318573 L8.14060506,27.6200938 L16.1406051,30.9534271 L16.1406051,25.3709381 L18.1406051,23.3704891 Z M6.44969401,17.0822142 L17.4514256,21.666269 C17.7063263,21.7724776 17.826865,22.0652145 17.7206564,22.3201152 C17.6955376,22.3804003 17.6588517,22.4351805 17.6126713,22.4813609 L14.3773772,25.716655 L14.3773772,25.716655 C14.2341089,25.8599233 14.0185425,25.9025677 13.8315161,25.8246401 L2.82978451,21.2405852 L2.82978451,21.2405852 C2.57488385,21.1343766 2.45434513,20.8416397 2.56055374,20.5867391 C2.58567255,20.5264539 2.62235844,20.4716737 2.66853881,20.4254934 L5.90383293,17.1901993 L5.90383293,17.1901993 C6.0471012,17.046931 6.2626676,17.0042865 6.44969401,17.0822142 Z M31.3773772,17.1901993 L34.6126713,20.4254934 C34.8079335,20.6207555 34.8079335,20.937338 34.6126713,21.1326002 C34.5664909,21.1787805 34.5117107,21.2154664 34.4514256,21.2405852 L23.449694,25.8246401 C23.2626676,25.9025677 23.0471012,25.8599233 22.9038329,25.716655 L19.6685388,22.4813609 C19.4732767,22.2860987 19.4732767,21.9695162 19.6685388,21.7742541 C19.7147192,21.7280737 19.7694994,21.6913878 19.8297845,21.666269 L30.8315161,17.0822142 L30.8315161,17.0822142 C31.0185425,17.0042865 31.2341089,17.046931 31.3773772,17.1901993 L31.3773772,17.1901993 Z M21.1406051,25.3661926 L21.1406051,30.9534121 L29.1406051,27.6200353 L29.1406051,24.5402039 L31.1406051,23.693022 C31.1406051,26.8974185 31.1406051,28.5397546 31.1406051,28.6200302 C31.1406051,28.8218798 31.0192372,29.0039325 30.8329149,29.0815678 L19.8329149,33.6649609 C19.5780147,33.7711707 19.2852773,33.6506334 19.1790675,33.3957332 C19.1536773,33.3347975 19.1406051,33.2694371 19.1406051,33.2034234 C19.1406051,29.7312149 19.1406051,25.1270585 19.1406051,23.3909543 L21.1406051,25.3661926 Z"/>
    <polygon class="fl-svg-check" points="32 5 29 2 18 13 12 7 9 10 18 19"/>
  </g>
</svg>
