<svg class="fl-icon-status" xmlns="http://www.w3.org/2000/svg" width="36" height="36" viewBox="0 0 36 36">
  <path fill="#00C2C2" fill-rule="evenodd" d="M18.1406051,20.3704891 C18.1406051,24.6049106 18.1406051,27.8825566 18.1406051,30.2034271 C18.1406051,30.4795695 17.9167474,30.7034271 17.6406051,30.7034271 C17.5745921,30.7034271 17.5092325,30.6903552 17.4482974,30.6649656 L6.44829737,26.0816323 C6.2619739,26.0039975 6.14060506,25.8219442 6.14060506,25.6200938 C6.14060506,24.3241463 6.14060506,21.3521856 6.14060506,20.7042119 L8.14060506,21.5318573 L8.14060506,24.6200938 L16.1406051,27.9534271 L16.1406051,22.3709381 L18.1406051,20.3704891 Z M22.8520769,6.02955699 L34.2861761,10.1458327 L34.2861761,10.1458327 C34.545995,10.2393675 34.6807949,10.5258173 34.5872601,10.7856361 C34.5551964,10.874702 34.498508,10.952836 34.4237867,11.0109525 L30.8602705,13.7825762 L30.8602705,13.7825762 C30.7236915,13.8888044 30.5418986,13.9168692 30.379643,13.8567745 L18.1710379,9.33506893 C17.9120858,9.23916072 17.7799125,8.95148954 17.8758207,8.69253737 C17.9177598,8.5793019 17.999261,8.48506934 18.1052691,8.42724676 L22.4432911,6.06105291 L22.4432911,6.06105291 C22.5687857,5.99260131 22.7175777,5.98113726 22.8520769,6.02955699 L22.8520769,6.02955699 Z M6.44969401,14.0822142 L17.4514256,18.666269 L17.4514256,18.666269 C17.7063263,18.7724776 17.826865,19.0652145 17.7206564,19.3201152 C17.6955376,19.3804003 17.6588517,19.4351805 17.6126713,19.4813609 L14.3773772,22.716655 L14.3773772,22.716655 C14.2341089,22.8599233 14.0185425,22.9025677 13.8315161,22.8246401 L2.82978451,18.2405852 L2.82978451,18.2405852 C2.57488385,18.1343766 2.45434513,17.8416397 2.56055374,17.5867391 C2.58567255,17.5264539 2.62235844,17.4716737 2.66853881,17.4254934 L5.90383293,14.1901993 C6.0471012,14.046931 6.2626676,14.0042865 6.44969401,14.0822142 Z M11.2839645,7.48651006 L16.0650386,8.58983487 L16.0650386,8.58983487 C16.3341093,8.6519281 16.5018977,8.92038952 16.4398045,9.18946022 C16.4026823,9.35032308 16.288548,9.48249293 16.1348085,9.54265185 L6.27711766,13.4000091 C6.18798516,13.4348871 6.09071472,13.4434491 5.99685992,13.4246781 L0.402038353,12.3057138 L0.402038353,12.3057138 C0.131258476,12.2515578 -0.0443498928,11.9881453 0.00980608251,11.7173654 C0.0441617613,11.545587 0.165911769,11.4043167 0.330736686,11.3449797 L11.002175,7.50326195 L11.002175,7.50326195 C11.0925461,7.47072835 11.1903753,7.46491257 11.2839645,7.48651006 L11.2839645,7.48651006 Z M31.3773772,14.1901993 L34.6126713,17.4254934 C34.8079335,17.6207555 34.8079335,17.937338 34.6126713,18.1326002 C34.5664909,18.1787805 34.5117107,18.2154664 34.4514256,18.2405852 L23.449694,22.8246401 C23.2626676,22.9025677 23.0471012,22.8599233 22.9038329,22.716655 L19.6685388,19.4813609 C19.4732767,19.2860987 19.4732767,18.9695162 19.6685388,18.7742541 C19.7147192,18.7280737 19.7694994,18.6913878 19.8297845,18.666269 L30.8315161,14.0822142 L30.8315161,14.0822142 C31.0185425,14.0042865 31.2341089,14.046931 31.3773772,14.1901993 L31.3773772,14.1901993 Z M21.1406051,22.3661926 L21.1406051,27.9534121 L29.1406051,24.6200353 L29.1406051,21.5402039 L31.1406051,20.693022 C31.1406051,23.8974185 31.1406051,25.5397546 31.1406051,25.6200302 C31.1406051,25.8218798 31.0192372,26.0039325 30.8329149,26.0815678 L19.8329149,30.6649609 C19.5780147,30.7711707 19.2852773,30.6506334 19.1790675,30.3957332 C19.1536773,30.3347975 19.1406051,30.2694371 19.1406051,30.2034234 C19.1406051,26.7312149 19.1406051,22.1270585 19.1406051,20.3909543 L21.1406051,22.3661926 Z"/>
</svg>
