<svg class="fl-icon-status" xmlns="http://www.w3.org/2000/svg" width="36" height="36" viewBox="0 0 36 36">
  <path fill="#00C2C2" d="M17.3854996,31.9229588 C17.1769582,32.010675 16.9375667,32.0291797 16.7042901,31.9558121 C16.6450637,31.9372812 16.5882849,31.9135479 16.5341795,31.8849532 L1.54637766,24.2547996 C1.21115502,24.0841408 1.0000607,23.7397995 1.0000607,23.3636364 L1.0000607,10.0132886 C0.995904906,9.62962533 1.20518969,9.24481413 1.61525797,9.07674362 C1.64836419,9.06284503 1.68225423,9.0506915 1.71678252,9.04037577 L16.7437689,4.05094672 C16.9196545,3.99254718 17.1083089,3.98417359 17.2886769,4.02676048 L34.1891239,8.0171438 C34.2342616,8.02596771 34.2785826,8.03788725 34.3217883,8.05271307 C34.6357446,8.1564887 34.8452065,8.38807865 34.9407902,8.65757059 C34.9737345,8.74864219 34.9939438,8.84670628 34.9988766,8.95014993 C35.0001889,8.97534345 35.0005858,9.00058761 35.0000607,9.02582031 L35.0000607,24.3043479 C35.0000607,24.7151871 34.7487811,25.0842239 34.3665228,25.2347809 L17.3854996,31.9229588 Z M3.0000607,11.5701964 L3.0000607,22.7505983 L16.0000607,29.3687801 L16.0000607,17.6368631 L3.0000607,11.5701964 Z M4.70097073,10.1568951 L16.9982852,15.8956418 L30.9822427,9.31495594 L17.1049736,6.0383785 L4.70097073,10.1568951 Z M18.0000607,17.6346056 L18.0000607,29.5313698 L33.0000607,23.6234414 L33.0000607,10.5757821 L18.0000607,17.6346056 Z"/>
</svg>
