<svg class="fl-icon-status" xmlns="http://www.w3.org/2000/svg" width="36" height="36" viewBox="0 0 36 36">
  <path fill="#00C2C2" fill-rule="evenodd" d="M33,13 L33,12 C33,10.8954305 32.1045695,10 31,10 L6,10 L6,10 C4.8954305,10 4,10.8954305 4,12 L4,25 C4,26.1045695 4.8954305,27 6,27 L31,27 C32.1045695,27 33,26.1045695 33,25 L33,17 L4,17 L4,13 L33,13 Z M6,8 L31,8 C33.209139,8 35,9.790861 35,12 L35,25 C35,27.209139 33.209139,29 31,29 L6,29 C3.790861,29 2,27.209139 2,25 L2,12 L2,12 C2,9.790861 3.790861,8 6,8 L6,8 Z M15,20 L23,20 C23.5522847,20 24,20.4477153 24,21 C24,21.5522847 23.5522847,22 23,22 L15,22 C14.4477153,22 14,21.5522847 14,21 C14,20.4477153 14.4477153,20 15,20 Z M11,23 L27,23 C27.5522847,23 28,23.4477153 28,24 C28,24.5522847 27.5522847,25 27,25 L11,25 C10.4477153,25 10,24.5522847 10,24 C10,23.4477153 10.4477153,23 11,23 Z"/>
</svg>
