<svg class="fl-icon-status" xmlns="http://www.w3.org/2000/svg" width="36" height="36" viewBox="0 0 36 36">
  <path fill="#00C2C2" fill-rule="evenodd" d="M4,23 L3,23 C2.44771525,23 2,22.5522847 2,22 C2,21.4477153 2.44771525,21 3,21 L3,21 L4,21 L4,19 L3,19 C2.44771525,19 2,18.5522847 2,18 C2,17.4477153 2.44771525,17 3,17 L3,17 L4,17 L4,15 L3,15 C2.44771525,15 2,14.5522847 2,14 C2,13.4477153 2.44771525,13 3,13 L3,13 L4,13 L4,4 L4,4 C4,2.34314575 5.34314575,1 7,1 L7,1 L28,1 L28,1 C29.6568542,1 31,2.34314575 31,4 L31,32 L31,32 C31,33.6568542 29.6568542,35 28,35 L7,35 C5.34314575,35 4,33.6568542 4,32 L4,23 Z M9,3 C7.8954305,3 7,3.8954305 7,5 L7,31 C7,32.1045695 7.8954305,33 9,33 L27,33 C28.1045695,33 29,32.1045695 29,31 L29,5 C29,3.8954305 28.1045695,3 27,3 L9,3 Z M11,7 C11.5522847,7 12,7.44771525 12,8 C12,8.55228475 11.5522847,9 11,9 C10.4477153,9 10,8.55228475 10,8 C10,7.44771525 10.4477153,7 11,7 Z M11,10 C11.5522847,10 12,10.4477153 12,11 C12,11.5522847 11.5522847,12 11,12 C10.4477153,12 10,11.5522847 10,11 C10,10.4477153 10.4477153,10 11,10 Z M11,13 C11.5522847,13 12,13.4477153 12,14 C12,14.5522847 11.5522847,15 11,15 C10.4477153,15 10,14.5522847 10,14 C10,13.4477153 10.4477153,13 11,13 Z M15,7 L23,7 C23.5522847,7 24,7.44771525 24,8 C24,8.55228475 23.5522847,9 23,9 L15,9 C14.4477153,9 14,8.55228475 14,8 C14,7.44771525 14.4477153,7 15,7 Z M15,10 L26,10 C26.5522847,10 27,10.4477153 27,11 C27,11.5522847 26.5522847,12 26,12 L15,12 C14.4477153,12 14,11.5522847 14,11 C14,10.4477153 14.4477153,10 15,10 Z M15,13 L21,13 C21.5522847,13 22,13.4477153 22,14 C22,14.5522847 21.5522847,15 21,15 L15,15 C14.4477153,15 14,14.5522847 14,14 C14,13.4477153 14.4477153,13 15,13 Z M4,19 L5,19 C5.55228475,19 6,18.5522847 6,18 C6,17.4477153 5.55228475,17 5,17 L4,17 L4,19 Z M4,13 L4,15 L5,15 C5.55228475,15 6,14.5522847 6,14 C6,13.4477153 5.55228475,13 5,13 L4,13 Z M4,23 L5,23 C5.55228475,23 6,22.5522847 6,22 C6,21.4477153 5.55228475,21 5,21 L4,21 L4,23 Z"/>
</svg>
