<svg xmlns="http://www.w3.org/2000/svg" width="60" height="60" viewBox="0 0 60 60">
  <g fill="#FFF" fill-rule="evenodd">
    <path d="M41,16 L41,14 L41,14 C41,13.4477153 41.4477153,13 42,13 L43,13 C43.5522847,13 44,13.4477153 44,14 L44,16 C45.6568542,16 47,17.3431458 47,19 L47,44 C47,45.6568542 45.6568542,47 44,47 L16,47 C14.3431458,47 13,45.6568542 13,44 L13,19 C13,17.3431458 14.3431458,16 16,16 L16,16 L16,14 L16,14 C16,13.4477153 16.4477153,13 17,13 L18,13 L18,13 C18.5522847,13 19,13.4477153 19,14 L19,16 L21,16 L21,14 L21,14 C21,13.4477153 21.4477153,13 22,13 L23,13 C23.5522847,13 24,13.4477153 24,14 L24,16 L26,16 L26,14 L26,14 C26,13.4477153 26.4477153,13 27,13 L28,13 C28.5522847,13 29,13.4477153 29,14 L29,16 L31,16 L31,14 L31,14 C31,13.4477153 31.4477153,13 32,13 L33,13 C33.5522847,13 34,13.4477153 34,14 L34,16 L36,16 L36,14 L36,14 C36,13.4477153 36.4477153,13 37,13 L38,13 C38.5522847,13 39,13.4477153 39,14 L39,16 L41,16 Z M21,16 L21,18 C21,18.5522847 21.4477153,19 22,19 L22,19 L23,19 C23.5522847,19 24,18.5522847 24,18 L24,16 L21,16 Z M29,16 L26,16 L26,18 C26,18.5522847 26.4477153,19 27,19 L27,19 L28,19 C28.5522847,19 29,18.5522847 29,18 L29,16 Z M31,16 L31,18 C31,18.5522847 31.4477153,19 32,19 L32,19 L33,19 C33.5522847,19 34,18.5522847 34,18 L34,16 L31,16 Z M39,16 L36,16 L36,18 C36,18.5522847 36.4477153,19 37,19 L37,19 L38,19 C38.5522847,19 39,18.5522847 39,18 L39,16 Z M41,16 L41,18 C41,18.5522847 41.4477153,19 42,19 L42,19 L43,19 C43.5522847,19 44,18.5522847 44,18 L44,16 L41,16 Z M17,13 C16.4477153,13 16,13.4477153 16,14 L16,14 L16,18 C16,18.5522847 16.4477153,19 17,19 L17,19 L18,19 C18.5522847,19 19,18.5522847 19,18 L19,14 C19,13.4477153 18.5522847,13 18,13 L18,13 L17,13 Z M17,23 L17,23 C15.8954305,23 15,23.8954305 15,25 L15,43 C15,44.1045695 15.8954305,45 17,45 L43,45 C44.1045695,45 45,44.1045695 45,43 L45,25 C45,23.8954305 44.1045695,23 43,23 L17,23 Z M27.704,39 L27.704,30.6 L26.348,30.6 C26.2999998,30.9200016 26.2000008,31.1879989 26.048,31.404 C25.8959992,31.6200011 25.7100011,31.7939993 25.49,31.926 C25.2699989,32.0580007 25.0220014,32.1499997 24.746,32.202 C24.4699986,32.2540003 24.1840015,32.276 23.888,32.268 L23.888,33.552 L26,33.552 L26,39 L27.704,39 Z M34.376,39 L32.672,39 L32.672,33.552 L30.56,33.552 L30.56,32.268 C30.8560015,32.276 31.1419986,32.2540003 31.418,32.202 C31.6940014,32.1499997 31.9419989,32.0580007 32.162,31.926 C32.3820011,31.7939993 32.5679992,31.6200011 32.72,31.404 C32.8720008,31.1879989 32.9719998,30.9200016 33.02,30.6 L34.376,30.6 L34.376,39 Z M17,13 L18,13 L18,13 C18.5522847,13 19,13.4477153 19,14 L19,16 L16,16 L16,14 L16,14 C16,13.4477153 16.4477153,13 17,13 Z"/>
    <path d="M30,60 C13.4314575,60 0,46.5685425 0,30 C0,13.4314575 13.4314575,0 30,0 C46.5685425,0 60,13.4314575 60,30 C60,46.5685425 46.5685425,60 30,60 Z M30,59 C46.0162577,59 59,46.0162577 59,30 C59,13.9837423 46.0162577,1 30,1 C13.9837423,1 1,13.9837423 1,30 C1,46.0162577 13.9837423,59 30,59 Z"/>
  </g>
</svg>
