<svg xmlns="http://www.w3.org/2000/svg" width="60" height="60" viewBox="0 0 60 60">
  <g fill="#FFF" fill-rule="evenodd">
    <path class="circle" d="M30,60 C13.4314575,60 0,46.5685425 0,30 C0,13.4314575 13.4314575,0 30,0 C46.5685425,0 60,13.4314575 60,30 C60,46.5685425 46.5685425,60 30,60 Z M30,59 C46.0162577,59 59,46.0162577 59,30 C59,13.9837423 46.0162577,1 30,1 C13.9837423,1 1,13.9837423 1,30 C1,46.0162577 13.9837423,59 30,59 Z"/>
    <path class="main" fill-rule="nonzero" d="M39,20.5857864 L43.4142136,25 L28,40.4142136 L17.5857864,30 L22,25.5857864 L28,31.5857864 L39,20.5857864 Z M39,23.4142136 L28,34.4142136 L22,28.4142136 L20.4142136,30 L28,37.5857864 L40.5857864,25 L39,23.4142136 Z"/>
  </g>
</svg>
