<svg xmlns="http://www.w3.org/2000/svg" width="60" height="60" viewBox="0 0 60 60">
  <g fill="#FFF" fill-rule="evenodd">
    <path class="main" d="M29,36 L27,38 L18,38 C15.790861,38 14,36.209139 14,34 L14,21 L14,21 C14,18.790861 15.790861,17 18,17 L18,17 L43,17 C45.209139,17 47,18.790861 47,21 L47,30 L45,32 L45,26 L16,26 L16,22 L45,22 L45,21 C45,19.8954305 44.1045695,19 43,19 L18,19 L18,19 C16.8954305,19 16,19.8954305 16,21 L16,34 C16,35.1045695 16.8954305,36 18,36 L29,36 Z M31,36 L41,36 L39,38 L33,38 L31,36 Z M27,29 L35,29 C35.5522847,29 36,29.4477153 36,30 C36,30.5522847 35.5522847,31 35,31 L27,31 C26.4477153,31 26,30.5522847 26,30 C26,29.4477153 26.4477153,29 27,29 Z M23,32 L39,32 C39.5522847,32 40,32.4477153 40,33 C40,33.5522847 39.5522847,34 39,34 L23,34 C22.4477153,34 22,33.5522847 22,33 C22,32.4477153 22.4477153,32 23,32 Z"/>
    <path class="circle" d="M30,60 C13.4314575,60 0,46.5685425 0,30 C0,13.4314575 13.4314575,0 30,0 C46.5685425,0 60,13.4314575 60,30 C60,46.5685425 46.5685425,60 30,60 Z M30,59 C46.0162577,59 59,46.0162577 59,30 C59,13.9837423 46.0162577,1 30,1 C13.9837423,1 1,13.9837423 1,30 C1,46.0162577 13.9837423,59 30,59 Z"/>
    <polygon class="check" points="50 35 47 32 36 43 30 37 27 40 36 49"/>
  </g>
</svg>
