<svg xmlns="http://www.w3.org/2000/svg" width="60" height="60" viewBox="0 0 60 60">
  <g fill="#FFF" fill-rule="evenodd">
    <path class="main" d="M45,25 L45,24 C45,22.8954305 44.1045695,22 43,22 L18,22 L18,22 C16.8954305,22 16,22.8954305 16,24 L16,37 C16,38.1045695 16.8954305,39 18,39 L43,39 C44.1045695,39 45,38.1045695 45,37 L45,29 L16,29 L16,25 L45,25 Z M18,20 L43,20 C45.209139,20 47,21.790861 47,24 L47,37 C47,39.209139 45.209139,41 43,41 L18,41 C15.790861,41 14,39.209139 14,37 L14,24 L14,24 C14,21.790861 15.790861,20 18,20 L18,20 Z M27,32 L35,32 C35.5522847,32 36,32.4477153 36,33 C36,33.5522847 35.5522847,34 35,34 L27,34 C26.4477153,34 26,33.5522847 26,33 C26,32.4477153 26.4477153,32 27,32 Z M23,35 L39,35 C39.5522847,35 40,35.4477153 40,36 C40,36.5522847 39.5522847,37 39,37 L23,37 C22.4477153,37 22,36.5522847 22,36 C22,35.4477153 22.4477153,35 23,35 Z"/>
    <path class="circle" d="M30,60 C13.4314575,60 0,46.5685425 0,30 C0,13.4314575 13.4314575,0 30,0 C46.5685425,0 60,13.4314575 60,30 C60,46.5685425 46.5685425,60 30,60 Z M30,59 C46.0162577,59 59,46.0162577 59,30 C59,13.9837423 46.0162577,1 30,1 C13.9837423,1 1,13.9837423 1,30 C1,46.0162577 13.9837423,59 30,59 Z"/>
  </g>
</svg>
