<svg xmlns="http://www.w3.org/2000/svg" width="60" height="60" viewBox="0 0 60 60">
  <g fill="#FFF" fill-rule="evenodd">
    <path class="circle" d="M30,60 C13.4314575,60 0,46.5685425 0,30 C0,13.4314575 13.4314575,0 30,0 C46.5685425,0 60,13.4314575 60,30 C60,46.5685425 46.5685425,60 30,60 Z M30,59 C46.0162577,59 59,46.0162577 59,30 C59,13.9837423 46.0162577,1 30,1 C13.9837423,1 1,13.9837423 1,30 C1,46.0162577 13.9837423,59 30,59 Z"/>
    <path class="main" d="M17,33 L17,31 L16,31 C15.4477153,31 15,30.5522847 15,30 C15,29.4477153 15.4477153,29 16,29 L16,29 L17,29 L17,27 L16,27 C15.4477153,27 15,26.5522847 15,26 C15,25.4477153 15.4477153,25 16,25 L16,25 L17,25 L17,16 L17,16 C17,14.3431458 18.3431458,13 20,13 L20,13 L41,13 L41,13 C42.6568542,13 44,14.3431458 44,16 L44,24 L42,26 L42,17 C42,15.8954305 41.1045695,15 40,15 L22,15 C20.8954305,15 20,15.8954305 20,17 L20,43 C20,44.1045695 20.8954305,45 22,45 L40,45 C41.1045695,45 42,44.1045695 42,43 L42,36 L44,34 L44,44 L44,44 C44,45.6568542 42.6568542,47 41,47 L20,47 C18.3431458,47 17,45.6568542 17,44 L17,35 L16,35 C15.4477153,35 15,34.5522847 15,34 C15,33.4477153 15.4477153,33 16,33 L16,33 L17,33 Z M24,19 C24.5522847,19 25,19.4477153 25,20 C25,20.5522847 24.5522847,21 24,21 C23.4477153,21 23,20.5522847 23,20 C23,19.4477153 23.4477153,19 24,19 Z M24,22 C24.5522847,22 25,22.4477153 25,23 C25,23.5522847 24.5522847,24 24,24 C23.4477153,24 23,23.5522847 23,23 C23,22.4477153 23.4477153,22 24,22 Z M24,25 C24.5522847,25 25,25.4477153 25,26 C25,26.5522847 24.5522847,27 24,27 C23.4477153,27 23,26.5522847 23,26 C23,25.4477153 23.4477153,25 24,25 Z M28,19 L36,19 C36.5522847,19 37,19.4477153 37,20 C37,20.5522847 36.5522847,21 36,21 L28,21 C27.4477153,21 27,20.5522847 27,20 C27,19.4477153 27.4477153,19 28,19 Z M28,22 L39,22 C39.5522847,22 40,22.4477153 40,23 C40,23.5522847 39.5522847,24 39,24 L28,24 C27.4477153,24 27,23.5522847 27,23 C27,22.4477153 27.4477153,22 28,22 Z M28,25 L34,25 C34.5522847,25 35,25.4477153 35,26 C35,26.5522847 34.5522847,27 34,27 L28,27 C27.4477153,27 27,26.5522847 27,26 C27,25.4477153 27.4477153,25 28,25 Z M17,29 L17,31 L18,31 C18.5522847,31 19,30.5522847 19,30 C19,29.4477153 18.5522847,29 18,29 L17,29 Z M17,27 L18,27 C18.5522847,27 19,26.5522847 19,26 C19,25.4477153 18.5522847,25 18,25 L17,25 L17,27 Z M17,33 L17,35 L18,35 C18.5522847,35 19,34.5522847 19,34 C19,33.4477153 18.5522847,33 18,33 L17,33 Z"/>
    <polygon class="check" points="48 28 45 25 34 36 28 30 25 33 34 42"/>
  </g>
</svg>
