<svg xmlns="http://www.w3.org/2000/svg" width="60" height="60" viewBox="0 0 60 60">
  <path fill="#FFF" fill-rule="evenodd" d="M49,72 C32.4314575,72 19,58.5685425 19,42 C19,25.4314575 32.4314575,12 49,12 C65.5685425,12 79,25.4314575 79,42 C79,58.5685425 65.5685425,72 49,72 Z M49,71 C65.0162577,71 78,58.0162577 78,42 C78,25.9837423 65.0162577,13 49,13 C32.9837423,13 20,25.9837423 20,42 C20,58.0162577 32.9837423,71 49,71 Z M49.0006065,27.54175 C54.29422,27.54175 58.5820105,31.7300502 58.5807972,36.8974808 C58.5807972,38.2333204 58.2920326,39.5024288 57.7763815,40.6489941 L49.0006065,56.45825 L40.2236183,40.6489941 C39.7103938,39.5012155 39.4192026,38.2333204 39.4192026,36.8974808 C39.4192026,31.7300502 43.7094197,27.54175 49.0006065,27.54175 Z M49.1146564,43.2854878 C52.5058207,43.2854878 55.2563643,40.5203847 55.2563643,37.1073811 C55.2563643,33.6955908 52.5058207,30.931701 49.1146564,30.931701 C45.7222789,30.931701 42.9729486,33.6955908 42.9729486,37.1073811 C42.9729486,40.521598 45.7210656,43.2854878 49.1146564,43.2854878 Z M49.1146564,40.5385841 C47.1881613,40.5385841 45.6264284,38.9871723 45.6264284,37.0734088 C45.6264284,35.1596453 47.1881613,33.6082334 49.1146564,33.6082334 C51.0411515,33.6082334 52.6028844,35.1596453 52.6028844,37.0734088 C52.6028844,38.9871723 51.0411515,40.5385841 49.1146564,40.5385841 Z" style="mix-blend-mode:luminosity" transform="translate(-19 -12)"/>
</svg>
